<?xml version="1.0" standalone="no"?>
<!DOCTYPE svg PUBLIC "-//W3C//DTD SVG 20010904//EN"
 "http://www.w3.org/TR/2001/REC-SVG-20010904/DTD/svg10.dtd">
<svg version="1.0" xmlns="http://www.w3.org/2000/svg"
 width="1000.000000pt" height="600.000000pt" viewBox="0 0 1000.000000 600.000000"
 preserveAspectRatio="xMidYMid meet">
<metadata>
Created by potrace 1.15, written by Peter Selinger 2001-2017
</metadata>
<g transform="translate(0.000000,600.000000) scale(0.100000,-0.100000)"
fill="#000000" stroke="none">
<path d="M0 3000 l0 -3000 653 0 653 1 12 79 c6 43 16 87 21 97 6 10 15 38 21
62 6 23 13 41 15 39 2 -2 -3 -28 -11 -58 -25 -91 -44 -181 -44 -206 0 -12 682
-14 4340 -14 l4340 0 0 3000 0 3000 -1779 0 -1778 0 -6 -37 c-5 -28 -20 -50
-66 -92 -52 -49 -60 -62 -67 -105 -4 -32 -16 -59 -36 -82 -32 -36 -47 -41 -65
-23 -9 9 -3 20 22 43 33 32 62 105 51 132 -10 25 -22 15 -34 -31 -9 -33 -19
-48 -43 -60 -37 -20 -85 -12 -100 17 -13 24 1 38 39 38 21 0 82 53 82 71 0 17
36 13 51 -5 13 -15 19 -17 36 -7 37 19 63 66 61 105 l-3 36 -108 0 c-70 0
-106 -4 -102 -10 3 -5 2 -10 -4 -10 -5 0 -13 4 -16 10 -3 6 -18 10 -32 10
l-25 0 22 -18 23 -18 -30 -34 c-29 -32 -29 -32 -61 -16 -17 9 -38 16 -47 16
-9 0 -23 16 -31 35 l-14 35 -2970 0 -2970 0 0 -3000z m3009 2166 c24 -13 29
-23 35 -68 4 -29 10 -70 13 -90 5 -37 5 -38 -26 -38 -28 0 -31 3 -31 30 0 33
-28 53 -92 65 -31 6 -38 4 -47 -14 -13 -23 -19 -25 -39 -12 -11 7 -10 17 8 52
13 24 32 57 43 73 18 26 24 28 64 22 24 -3 56 -12 72 -20z m127 -128 c6 -19
-15 -78 -28 -78 -4 0 -7 -8 -6 -17 4 -53 1 -56 -36 -34 -18 12 -42 21 -53 21
-31 0 -53 23 -60 63 -8 51 20 51 33 0 8 -35 12 -38 44 -38 l35 0 0 50 c0 28
-3 68 -7 89 l-7 39 39 -38 c22 -22 43 -47 46 -57z m4316 -24 c34 -17 87 -81
113 -137 8 -17 30 -52 49 -77 19 -25 35 -48 35 -52 1 -4 6 -19 13 -35 13 -31
15 -45 18 -119 3 -59 19 -97 21 -49 1 30 1 30 9 -5 6 -25 5 -37 -4 -42 -8 -4
-19 -21 -25 -36 -12 -27 -17 -30 -79 -35 -37 -2 -75 -8 -84 -12 -12 -5 -17 -1
-20 17 -4 32 -33 30 -31 -3 1 -23 -2 -25 -40 -24 -30 1 -44 7 -55 23 -14 22
-13 25 19 52 20 17 56 34 89 41 70 15 81 25 44 40 -23 8 -40 7 -84 -6 -30 -10
-64 -25 -74 -34 -19 -16 -19 -15 -1 13 26 39 91 66 144 59 51 -7 54 10 5 25
-25 7 -44 7 -65 0 -17 -6 -32 -8 -35 -6 -9 10 16 58 31 58 8 0 15 7 15 15 0
18 -31 20 -48 3 -18 -18 -29 0 -42 72 -7 36 -14 71 -16 78 -5 17 -24 15 -24
-2 0 -24 -16 -27 -65 -15 -42 11 -49 10 -66 -8 -21 -21 -21 -21 -14 -131 5
-69 21 -117 50 -152 7 -8 20 -40 29 -71 8 -31 25 -67 36 -82 25 -31 25 -37 1
-37 -15 0 -28 17 -49 63 -17 34 -33 73 -37 86 -4 14 -16 38 -26 55 -14 23 -19
50 -19 107 0 42 -5 80 -11 86 -14 14 -4 93 16 119 11 15 16 17 26 7 7 -7 27
-13 45 -13 58 0 112 94 67 118 -13 8 -6 14 38 36 64 31 60 30 101 10z m-4296
-151 c-9 -139 -19 -188 -60 -285 -19 -46 -40 -98 -47 -116 -19 -53 -22 -29 -5
50 26 115 26 156 4 194 -19 33 -19 34 -1 34 10 0 33 9 51 20 35 22 40 45 19
95 -11 24 -10 37 2 75 8 25 16 52 18 60 4 12 6 11 15 -4 7 -12 8 -55 4 -123z
m-147 -148 c32 -39 33 -42 28 -105 -5 -60 -25 -151 -48 -227 -6 -17 -22 -39
-36 -48 -23 -16 -25 -16 -20 -1 9 24 -9 19 -30 -7 -10 -13 -28 -29 -40 -36
-19 -10 -26 -8 -43 9 -11 11 -24 20 -30 20 -18 0 -10 20 20 50 17 17 37 30 45
30 8 0 15 5 15 10 0 6 -11 10 -24 10 -15 0 -26 7 -29 20 -3 11 -16 24 -30 29
-24 9 -61 50 -53 58 2 3 21 -5 42 -16 21 -12 52 -21 68 -21 29 0 29 0 10 -22
l-19 -22 35 20 c38 22 48 45 49 117 1 49 -15 75 -63 102 -14 8 -17 17 -12 33
6 18 12 20 39 15 29 -6 31 -5 18 10 -7 9 -16 15 -20 13 -4 -3 -13 -1 -20 4
-11 6 -10 15 5 49 l18 41 45 -48 c25 -26 61 -65 80 -87z m-156 105 c-3 -11
-12 -20 -20 -20 -8 0 -11 -4 -8 -10 3 -5 -1 -10 -9 -10 -9 0 -16 -4 -16 -10 0
-5 6 -10 14 -10 22 0 27 -14 13 -44 -7 -15 -20 -26 -33 -26 -26 0 -59 -31 -84
-80 -32 -63 -22 -99 40 -145 31 -23 32 -25 11 -25 -12 0 -31 5 -42 10 -31 17
-24 -15 9 -39 25 -18 26 -21 10 -33 -25 -19 -39 -63 -25 -78 7 -7 8 -11 2 -8
-5 3 -19 8 -30 12 -16 6 -17 9 -5 17 12 8 10 9 -6 4 -17 -4 -27 3 -48 35 -15
22 -30 38 -35 36 -4 -3 -18 17 -31 44 -27 57 -25 87 15 225 27 93 44 119 57
85 4 -11 12 -20 19 -20 6 0 9 -7 6 -15 -11 -28 12 -25 33 5 12 17 24 29 27 26
3 -3 -4 -17 -14 -33 -29 -41 -43 -89 -43 -145 0 -51 13 -88 31 -88 6 0 6 7 -1
19 -16 30 -12 81 10 146 29 83 40 104 62 111 11 3 36 23 55 45 41 45 43 46 36
19z m-646 -57 c56 -22 84 -27 163 -27 92 -1 95 -2 98 -25 8 -51 -5 -69 -72
-100 -5 -2 -6 4 -3 13 7 18 -4 21 -20 5 -16 -16 -35 -1 -28 22 9 27 -10 24
-39 -7 -16 -18 -30 -25 -41 -20 -17 6 -16 8 1 28 19 21 19 21 -1 14 -11 -5
-28 -10 -37 -13 -9 -3 -14 -11 -12 -17 3 -7 -2 -19 -11 -26 -13 -11 -15 -9
-15 10 l0 23 -26 -26 c-14 -14 -23 -30 -21 -34 3 -5 -2 -19 -12 -32 -17 -22
-18 -22 -36 -5 -10 10 -25 19 -34 19 -9 0 -17 8 -19 18 -2 11 3 17 14 17 16 0
15 2 -2 21 -17 19 -19 19 -22 4 -2 -10 -10 -14 -19 -11 -8 3 -23 6 -34 6 -16
0 -18 5 -14 28 6 25 5 25 -8 10 -18 -23 -52 -24 -43 -2 3 9 2 12 -5 8 -6 -3
-14 -16 -19 -28 -9 -21 -9 -21 -9 2 -1 29 -25 24 -29 -6 -2 -14 -11 -22 -23
-22 -10 0 -19 -4 -19 -8 0 -4 -10 -8 -22 -9 -13 0 -17 1 -10 4 6 3 12 10 12
17 0 20 60 86 103 113 106 67 207 78 314 36z m5102 -13 c15 -8 18 -18 13 -55
-4 -37 0 -52 17 -76 l22 -29 -36 -35 c-27 -28 -35 -32 -35 -18 0 10 -14 33
-31 51 -32 34 -56 104 -38 110 9 4 19 14 47 47 15 18 18 18 41 5z m-5765 -137
c-19 -31 -34 -61 -34 -67 0 -5 -3 -6 -7 -3 -7 7 -26 -29 -49 -93 -13 -34 -13
-34 -8 -4 5 30 4 30 -34 28 -22 -1 -48 -7 -59 -12 -15 -8 -23 -8 -33 1 -10 10
-12 9 -7 -5 3 -9 0 -19 -9 -22 -9 -3 -12 -1 -9 4 9 14 -8 12 -25 -2 -7 -7 -2
2 13 20 15 19 27 39 27 45 0 8 -3 8 -8 2 -4 -5 -14 -11 -22 -13 -8 -2 -21 -8
-30 -13 -10 -6 -6 -7 15 -3 l30 6 -23 -17 c-12 -9 -26 -13 -32 -10 -6 3 -7 -1
-4 -9 3 -9 1 -16 -4 -16 -6 0 -12 7 -14 15 -2 12 -9 11 -38 -7 -34 -22 -40
-24 -60 -27 -5 0 -10 -6 -10 -12 0 -6 -9 -22 -20 -36 -15 -19 -20 -21 -20 -9
0 10 -8 16 -22 16 -19 0 -20 -2 -8 -10 13 -8 12 -10 -5 -11 -11 -1 -24 -2 -30
-4 -5 -1 -14 -3 -20 -4 -6 -1 -5 -4 1 -9 9 -5 8 -11 -2 -20 -12 -10 -14 -10
-14 3 0 8 -4 15 -10 15 -5 0 -10 -12 -10 -26 0 -23 -2 -25 -16 -13 -23 19 -40
-8 -49 -78 -6 -48 -4 -60 14 -84 26 -35 26 -35 -1 -44 -15 -4 -18 -8 -10 -12
7 -3 19 1 28 7 8 7 17 10 21 6 10 -9 -2 -17 -42 -26 l-36 -8 15 24 c18 27 20
38 6 29 -6 -3 -7 1 -4 9 4 11 0 16 -11 16 -12 0 -15 -5 -10 -20 3 -11 2 -20
-3 -20 -5 0 -12 9 -15 20 -7 28 -29 25 -51 -7 -9 -16 -15 -20 -12 -9 4 11 0
23 -11 31 -15 11 -15 13 5 19 12 4 22 12 22 17 0 6 -8 5 -21 -1 -11 -7 -24 -8
-27 -4 -4 4 -1 9 5 11 7 3 23 13 35 23 22 17 24 17 53 -3 19 -14 25 -15 17 -5
-10 13 -10 17 0 22 7 3 2 3 -11 0 -15 -4 -21 -2 -17 4 12 19 -11 22 -30 4 -26
-24 -94 -65 -99 -60 -6 6 48 46 145 108 47 30 87 57 90 61 3 3 50 30 105 59
185 97 250 133 285 156 37 24 240 132 252 133 3 1 -9 -25 -28 -56z m198 -52
c-6 -17 -14 -61 -17 -98 -6 -58 -3 -81 20 -155 15 -47 25 -95 22 -105 -7 -29
-59 92 -67 156 -4 31 -8 50 -9 43 0 -7 -5 -11 -10 -8 -5 3 -25 -1 -45 -9 -19
-8 -51 -15 -70 -15 -24 0 -43 -8 -61 -25 l-25 -26 0 33 c0 38 24 144 40 180 9
18 25 27 68 37 60 14 154 28 161 24 2 -1 -1 -16 -7 -32z m1424 -231 c59 -67
143 -197 214 -331 49 -92 72 -124 107 -150 64 -48 105 -103 143 -188 31 -71
32 -79 29 -180 -3 -68 0 -105 6 -104 6 1 20 -13 32 -32 l22 -33 -21 -18 c-15
-14 -22 -16 -25 -7 -3 8 -14 11 -29 7 -18 -5 -24 -2 -24 11 0 12 6 16 18 13
20 -6 48 27 33 37 -5 3 -11 0 -13 -7 -9 -26 -28 6 -28 47 0 32 -5 45 -17 50
-17 6 -17 7 0 16 24 14 22 55 -3 62 -17 4 -19 10 -13 39 6 30 5 32 -10 20 -21
-18 -43 -6 -27 13 7 8 8 19 4 26 -5 8 -9 7 -16 -5 -11 -20 -28 -12 -28 15 0
24 -8 24 -29 -2 l-16 -20 -28 21 c-15 12 -27 28 -27 36 0 8 -7 17 -15 20 -8 3
-17 22 -21 42 -4 21 -12 44 -19 52 -7 8 -15 24 -17 35 -2 12 -11 20 -23 20
-16 0 -19 6 -17 25 3 20 1 23 -9 13 -18 -18 -27 -16 -39 7 -9 17 -7 22 15 30
14 5 25 17 25 26 0 12 -6 14 -30 9 -23 -5 -30 -3 -30 9 0 10 8 15 22 13 17 -1
24 4 26 21 2 12 -1 22 -7 22 -6 0 -11 -4 -11 -10 0 -18 -17 -11 -23 9 -3 13 1
21 14 24 25 7 24 27 -1 27 -10 0 -24 9 -30 19 -14 27 -13 30 10 24 11 -3 20 0
20 6 0 6 -6 11 -14 11 -8 0 -18 9 -21 20 -3 11 -11 20 -17 20 -5 0 -8 -7 -4
-15 6 -18 1 -19 -25 -5 -25 14 -24 30 1 30 11 0 20 6 20 14 0 18 -17 30 -22
15 -2 -7 -12 -7 -31 0 -17 7 -27 7 -27 1 0 -6 5 -10 10 -10 6 0 10 -9 10 -20
0 -24 -8 -25 -38 -4 -12 8 -22 26 -22 40 0 34 -13 30 -38 -14 -26 -48 -59 -79
-59 -57 0 8 4 12 8 10 8 -6 22 25 14 33 -3 3 -16 0 -29 -6 l-25 -11 19 32 c10
18 30 62 44 99 32 87 10 82 -35 -8 -35 -69 -66 -106 -66 -79 0 8 4 12 9 9 4
-3 5 8 2 23 -4 24 5 39 58 100 l63 71 8 -50 c6 -31 5 -66 -1 -92 l-11 -41 21
25 c16 20 19 34 15 75 -4 40 -3 45 5 25 5 -14 13 -43 18 -65 l8 -40 1 45 c1
61 -7 87 -30 93 -14 4 -19 14 -18 39 l0 33 32 -39 c18 -22 50 -61 73 -86z
m4613 53 c49 -98 99 -277 81 -288 -6 -3 -10 -22 -10 -41 0 -19 -4 -34 -9 -34
-16 0 -40 91 -52 202 -12 104 -13 107 -35 102 -16 -4 -25 0 -34 15 -12 23 -40
29 -40 9 0 -7 18 -35 40 -63 l40 -50 0 -131 0 -131 -26 5 c-19 3 -25 1 -20 -6
5 -8 1 -10 -9 -6 -9 4 -14 9 -11 11 3 3 -27 37 -65 77 l-69 71 36 3 c20 2 41
-1 47 -7 13 -13 37 -15 37 -3 0 14 -64 92 -75 92 -6 0 -28 18 -49 39 -33 34
-36 41 -26 60 12 23 48 41 81 41 21 0 129 68 129 81 0 20 11 6 39 -48z m-6102
-62 c1 -83 13 -143 26 -138 13 5 13 10 2 42 -4 11 5 3 19 -17 15 -21 31 -38
36 -38 15 0 12 -56 -4 -69 -15 -12 -224 -10 -244 3 -11 6 -30 81 -34 135 -2
25 1 34 13 36 28 5 129 58 152 81 12 12 25 22 28 23 3 1 6 -26 6 -58z m279
-62 c11 -9 14 -22 10 -41 -5 -23 -2 -28 15 -28 15 0 19 -5 14 -19 -4 -13 0
-20 15 -24 23 -6 26 -29 6 -46 -11 -9 -17 -8 -29 4 -21 20 -26 19 -20 -5 4
-15 0 -20 -16 -20 -13 0 -21 6 -21 17 0 15 -2 14 -15 -3 -15 -19 -15 -19 -30
0 -18 24 -19 53 -2 59 8 3 6 10 -8 21 -19 15 -19 17 -3 29 16 12 16 15 2 29
-10 10 -14 24 -10 36 6 17 12 19 42 12 19 -4 42 -14 50 -21z m500 -445 l6 -82
81 -40 c45 -23 94 -44 110 -48 15 -3 27 -10 27 -15 0 -8 -12 -12 -140 -44 -36
-9 -68 -20 -72 -23 -4 -4 1 -62 11 -129 l17 -122 -35 28 c-20 16 -62 56 -93
89 -43 45 -56 64 -51 81 3 14 1 21 -8 21 -11 0 -11 2 1 10 13 8 13 10 -2 10
-23 0 -33 -19 -14 -26 26 -10 18 -21 -12 -16 -15 2 -58 -4 -95 -12 -84 -20
-106 -21 -89 -4 14 14 16 28 4 28 -4 0 -16 -13 -25 -30 -10 -16 -23 -30 -28
-30 -5 0 -1 12 9 28 11 15 38 57 62 94 l42 67 -36 85 c-41 95 -78 198 -73 203
2 1 37 -16 78 -40 41 -23 94 -51 116 -61 41 -18 41 -18 69 3 16 12 52 48 79
79 l50 58 2 -41 c2 -22 5 -77 9 -121z m5543 -49 c25 -14 59 -44 75 -65 27 -37
34 -40 77 -40 52 0 71 15 62 48 -3 12 -1 22 5 22 15 0 102 -112 102 -131 0
-27 -11 -29 -42 -6 -25 19 -50 23 -197 32 -92 7 -198 8 -237 4 -63 -7 -101 -6
-161 7 -33 6 -30 48 5 81 73 69 229 93 311 48z m-3717 -146 c39 -21 58 -85 57
-194 0 -77 -3 -94 -10 -75 -17 42 -60 80 -91 80 -29 0 -122 -42 -133 -60 -3
-5 18 2 47 15 71 33 103 32 139 -4 26 -27 29 -36 29 -98 0 -41 -12 -114 -29
-183 l-28 -115 -5 57 c-6 73 -33 101 -92 94 -21 -2 -43 -9 -49 -15 -7 -7 1 -7
27 0 66 18 89 -4 102 -99 9 -74 -37 -234 -117 -397 -8 -17 -9 -17 -4 5 32 137
30 191 -6 210 -27 15 -107 -22 -171 -79 -50 -45 -58 -46 -32 -7 10 16 12 26 5
31 -15 8 -14 121 0 148 l12 22 -23 -20 -23 -20 11 20 c6 11 35 44 66 73 30 28
51 52 46 52 -15 0 -142 -124 -206 -200 -32 -39 -60 -66 -62 -60 -3 7 -12 4
-25 -7 -21 -18 -21 -18 1 20 12 20 17 37 12 37 -6 0 -10 -3 -10 -7 0 -5 -13
-17 -28 -27 l-27 -20 19 22 c15 17 16 24 7 36 -7 8 -10 21 -6 28 3 7 -2 3 -11
-9 -9 -13 -20 -23 -25 -23 -11 0 10 57 27 71 8 6 14 16 14 22 0 5 -10 2 -22
-9 -57 -49 148 179 235 262 106 101 121 127 25 43 -54 -47 -78 -57 -43 -19 11
13 13 24 7 41 -17 46 -24 130 -11 145 14 17 5 18 -13 2 -14 -14 -110 -93 -142
-118 -18 -14 -18 -14 -6 5 15 25 192 177 278 241 102 76 229 113 284 83z
m-2259 -160 c-3 -11 2 -19 16 -24 11 -3 18 -12 15 -19 -3 -8 4 -15 21 -18 22
-5 23 -3 13 10 -11 13 -10 14 10 3 l24 -13 -22 -21 c-21 -19 -24 -19 -35 -4
-15 21 -25 22 -25 2 0 -8 19 -33 43 -56 30 -29 35 -38 17 -29 -38 20 -141 132
-135 148 2 7 1 11 -4 8 -17 -11 -32 20 -22 46 6 16 5 34 -5 57 -13 32 -12 31
40 -19 35 -35 52 -59 49 -71z m-55 -84 c40 -46 92 -97 115 -112 38 -26 43 -34
48 -78 3 -28 20 -87 37 -133 40 -104 42 -128 7 -88 -14 16 -28 26 -31 23 -9
-9 -95 64 -91 77 6 18 -41 122 -90 199 -40 62 -60 108 -98 222 -5 17 -4 17 12
-3 10 -13 51 -61 91 -107z m7375 -225 c31 -28 70 -71 87 -96 l30 -46 -22 -18
c-20 -16 -21 -20 -9 -46 9 -21 10 -29 1 -32 -25 -9 -50 -47 -50 -78 0 -26 -5
-33 -27 -39 -33 -8 -63 -33 -63 -52 0 -17 -10 -17 -35 1 -11 7 -48 28 -82 46
-43 22 -63 38 -63 51 0 16 7 14 59 -16 45 -26 71 -35 106 -35 49 0 57 14 19
34 -46 26 -154 111 -154 122 0 23 17 24 36 3 27 -30 62 -46 122 -54 44 -6 52
-4 52 9 0 9 -6 16 -14 16 -23 0 -126 73 -126 90 0 20 19 40 38 40 8 0 37 -13
64 -30 26 -16 55 -30 63 -30 33 0 12 32 -45 67 -59 37 -60 39 -58 78 4 48 -19
55 -40 13 -20 -43 -48 -34 -31 10 8 22 39 40 70 41 8 1 40 -22 72 -49z m-1684
18 c11 -30 -1 -51 -43 -78 -32 -19 -37 -20 -70 -6 -36 15 -56 41 -56 75 0 25
12 29 93 30 61 1 68 -1 76 -21z m-5139 -128 c51 -17 102 -30 112 -30 10 0 18
-4 18 -9 0 -5 -10 -7 -22 -3 -16 4 -20 2 -15 -10 9 -26 -44 -42 -116 -35 l-62
6 33 -28 c20 -17 32 -36 30 -47 -3 -16 -5 -16 -18 -2 -8 8 -21 13 -28 10 -6
-2 -12 0 -13 5 -1 13 -14 173 -14 173 0 0 43 -14 95 -30z m1579 -366 c-17 -43
-52 -119 -76 -169 -38 -74 -43 -92 -34 -108 10 -15 6 -28 -24 -77 -20 -33 -45
-66 -56 -74 -11 -7 -36 -40 -55 -72 -40 -66 -114 -167 -119 -162 -2 2 6 43 17
91 11 49 18 90 16 92 -2 2 -48 -11 -103 -29 -55 -18 -102 -32 -104 -30 -3 3
21 30 146 164 50 54 52 58 75 170 l24 114 46 -42 45 -42 79 83 c43 45 95 106
114 134 19 28 36 48 38 44 1 -4 -12 -43 -29 -87z m-613 -23 c-26 -29 -18 -37
10 -10 l27 24 -12 -23 c-16 -30 -6 -41 15 -16 14 18 15 17 8 -16 -5 -29 -4
-33 7 -22 16 14 33 16 24 2 -10 -16 7 -12 28 8 11 9 -10 -29 -47 -85 -176
-272 -288 -539 -299 -713 -2 -43 -5 -46 -52 -71 -28 -14 -53 -25 -56 -23 -3 2
-12 -8 -19 -22 -8 -13 -19 -23 -26 -20 -7 3 -15 0 -17 -7 -11 -31 -20 11 -19
87 2 162 112 461 255 696 95 156 147 226 168 227 20 2 20 1 5 -16z m5485 -92
c26 -12 58 -32 71 -46 l23 -25 -24 -19 c-39 -32 -64 -33 -117 -5 -63 33 -79
46 -86 71 -3 11 -9 29 -14 39 -7 18 -4 19 46 12 30 -4 75 -16 101 -27z m-1667
-98 c15 -24 260 -100 324 -101 25 0 35 -5 42 -24 5 -13 14 -27 19 -31 6 -3 11
-11 11 -16 0 -21 -177 16 -263 56 -52 23 -173 124 -150 125 6 0 14 -4 17 -9z
m-5465 -176 c44 -22 96 -89 115 -148 9 -28 22 -98 28 -153 l11 -102 -68 -93
c-51 -70 -76 -116 -102 -188 -38 -106 -55 -137 -114 -208 -22 -26 -51 -71 -64
-98 -24 -49 -25 -54 -14 -134 6 -46 9 -105 7 -132 -9 -90 -85 -165 -213 -209
-58 -20 -112 -28 -67 -10 28 12 59 79 74 158 25 141 58 242 80 242 15 0 78 60
78 75 0 5 11 31 25 57 15 28 22 54 18 64 -5 13 -3 15 7 9 9 -5 11 -4 6 4 -4 6
-11 9 -15 7 -4 -3 -18 13 -30 35 -28 49 -21 90 20 126 16 15 29 30 29 36 0 5
18 44 40 87 56 113 73 186 67 295 -2 50 -6 95 -8 100 -2 6 0 47 5 92 5 61 12
85 24 93 23 13 28 12 61 -5z m1805 -387 c-51 -56 -124 -117 -161 -137 -13 -6
-20 -17 -17 -25 3 -9 -6 -22 -23 -32 -15 -10 -46 -32 -68 -49 -64 -51 -175
-114 -212 -121 -37 -7 -89 10 -97 32 -4 9 13 24 52 43 31 17 77 43 101 60 37
24 48 28 65 19 11 -6 32 -11 47 -10 32 1 129 41 129 53 0 12 2 12 -54 -16 -47
-24 -95 -32 -109 -19 -8 9 24 33 100 78 33 19 74 51 91 71 22 24 40 35 60 35
35 0 100 33 119 60 8 12 18 19 21 16 3 -3 -17 -29 -44 -58z m-841 -65 c31 -42
32 -46 12 -150 -35 -181 -3 -293 82 -293 29 0 29 -3 -2 -77 -32 -81 -79 -160
-118 -201 -31 -33 -115 -77 -125 -67 -11 11 29 76 53 87 30 14 30 6 5 130 -23
110 -20 158 20 333 10 44 22 114 26 155 4 41 8 80 9 85 1 6 -2 18 -7 27 -14
29 14 11 45 -29z m5206 -6 c41 -43 101 -125 101 -139 0 -5 -19 -8 -43 -8 -37
0 -48 5 -84 43 -58 60 -63 72 -44 112 9 19 19 34 22 35 4 0 25 -19 48 -43z
m-4927 -292 c16 -14 39 -25 51 -26 13 0 -19 -21 -77 -50 -136 -67 -201 -67
-225 2 -12 36 -5 54 10 26 12 -20 29 -23 29 -3 0 8 25 20 63 31 34 9 73 23 87
31 32 17 28 18 62 -11z m-1373 -566 c11 -51 6 -83 -12 -72 -6 4 -8 0 -4 -11 4
-9 3 -15 -2 -12 -5 3 -11 -4 -15 -17 -5 -19 -8 -20 -17 -7 -9 13 -10 12 -5 -3
3 -11 -7 -34 -29 -62 -18 -25 -46 -67 -61 -95 -28 -52 -38 -60 -47 -36 -4 11
-1 13 10 9 11 -4 14 -2 9 5 -4 7 -2 12 4 12 7 0 9 9 5 23 -5 17 -4 19 4 7 6
-9 11 -10 11 -3 0 23 -12 43 -24 37 -6 -3 -1 3 11 13 17 13 20 22 13 33 -12
18 -13 30 -2 30 4 0 15 -12 24 -27 12 -19 18 -23 18 -11 0 9 6 19 13 21 7 3 4
6 -6 6 -10 1 -15 6 -12 12 4 6 13 8 21 5 14 -6 19 6 7 17 -3 4 -15 0 -25 -10
-10 -9 -21 -13 -25 -9 -4 4 3 16 17 26 14 11 20 20 15 20 -6 0 -22 -11 -37
-24 -14 -14 -29 -22 -34 -18 -4 4 -4 1 1 -7 5 -10 4 -12 -4 -7 -6 4 -26 -2
-44 -13 -18 -11 -53 -23 -77 -26 l-45 -6 50 18 c95 35 151 75 239 172 28 31
35 46 27 54 -6 6 -11 18 -11 27 1 29 28 -20 39 -71z"/>
</g>
</svg>
