<?xml version="1.0" standalone="no"?>
<!DOCTYPE svg PUBLIC "-//W3C//DTD SVG 20010904//EN"
 "http://www.w3.org/TR/2001/REC-SVG-20010904/DTD/svg10.dtd">
<svg version="1.0" xmlns="http://www.w3.org/2000/svg"
 width="1080.000000pt" height="600.000000pt" viewBox="0 0 1080.000000 600.000000"
 preserveAspectRatio="xMidYMid meet">
<metadata>
Created by potrace 1.15, written by Peter Selinger 2001-2017
</metadata>
<g transform="translate(0.000000,600.000000) scale(0.100000,-0.100000)"
fill="#000000" stroke="none">
<path d="M0 5917 c0 -62 6 -98 25 -150 18 -51 27 -104 35 -211 6 -78 8 -151 4
-160 -4 -9 -19 -20 -35 -23 -28 -5 -29 -7 -29 -68 0 -54 3 -63 20 -68 27 -7
27 -53 0 -67 -19 -10 -20 -21 -20 -328 l1 -317 65 3 c57 3 69 1 90 -18 13 -13
33 -28 46 -34 12 -6 29 -24 38 -39 14 -27 14 -29 -9 -48 -25 -20 -76 -26 -86
-9 -7 11 -109 78 -132 87 -10 4 -13 -30 -13 -181 0 -110 4 -186 9 -186 6 0 16
12 23 28 10 20 22 28 46 30 47 5 40 -16 -23 -67 l-55 -43 0 -379 c0 -241 4
-380 10 -384 13 -8 13 -95 0 -95 -7 0 -10 -538 -10 -1595 l0 -1595 4116 0
c2741 0 4113 3 4109 10 -3 6 -2 10 2 10 5 0 14 9 21 21 11 18 11 20 -5 17 -13
-2 -17 3 -16 19 2 14 -4 24 -17 28 -23 7 -27 40 -5 49 19 7 46 -20 39 -39 -4
-9 3 -16 20 -21 30 -7 54 -33 40 -42 -6 -4 -10 -17 -10 -29 0 -23 2 -23 136
-23 85 0 140 4 147 11 8 8 13 8 17 0 5 -8 271 -11 911 -11 l904 0 -2 28 c-2
23 2 27 23 27 20 0 26 -6 28 -28 l3 -27 170 0 169 0 0 1155 c0 671 -4 1155 -9
1155 -17 0 -21 33 -6 56 19 30 20 94 1 94 -21 0 -90 -31 -98 -43 -5 -9 -15 -9
-39 0 -26 10 -34 10 -46 -2 -8 -8 -25 -15 -37 -15 -13 0 -38 -3 -55 -6 -27 -6
-31 -4 -31 15 0 17 6 21 30 21 24 0 30 4 30 23 0 12 -9 28 -20 35 -29 18 -11
47 30 50 18 1 41 7 53 13 11 6 44 12 73 13 29 1 56 5 60 9 4 4 20 7 36 7 25 0
28 3 27 33 -1 21 -3 25 -6 12 -7 -28 -16 -35 -32 -25 -21 12 -1 76 22 72 35
-6 6 29 -41 48 -28 12 -38 36 -22 55 12 15 35 11 63 -13 16 -14 17 -13 17 11
0 18 -5 27 -16 27 -9 0 -29 8 -46 17 -27 16 -29 22 -25 56 7 52 23 69 59 62
l28 -7 0 1011 0 1011 -25 -6 c-16 -4 -47 4 -92 24 -37 17 -77 33 -88 36 -25 7
-59 87 -50 116 3 11 15 20 26 20 21 0 26 18 7 25 -7 2 -33 6 -58 10 -29 3 -56
15 -74 32 -25 23 -29 24 -44 10 -13 -14 -14 -20 -3 -40 10 -18 10 -33 2 -65
-6 -22 -9 -59 -5 -81 6 -38 5 -41 -21 -51 -20 -7 -31 -8 -39 0 -5 5 -22 10
-36 10 -20 0 -29 8 -43 41 -14 32 -15 44 -6 55 15 18 -12 84 -42 102 -36 23
-79 -1 -79 -43 0 -11 -9 -27 -20 -35 -32 -23 -24 -90 11 -90 22 0 24 -9 6 -34
-11 -15 -17 -16 -40 -5 -34 15 -80 -1 -71 -26 3 -8 2 -15 -4 -15 -33 0 -45 79
-21 137 12 29 11 35 -5 50 -17 17 -18 17 -33 -4 -32 -47 -72 -17 -57 42 6 24
10 26 39 21 45 -9 52 15 14 48 -29 26 -37 46 -19 46 6 0 10 8 10 18 -1 16 -1
16 -11 0 -6 -12 -22 -18 -44 -18 -31 0 -35 -3 -35 -25 0 -14 6 -28 14 -31 8
-3 17 -13 20 -21 8 -19 -19 -63 -38 -63 -18 0 -26 -22 -26 -71 0 -31 -4 -39
-19 -39 -17 0 -18 -8 -13 -105 4 -106 3 -112 -31 -106 -4 1 -22 -12 -40 -28
-30 -29 -31 -32 -19 -64 7 -19 10 -41 7 -50 -4 -8 2 -21 12 -28 27 -20 53 -65
53 -91 0 -12 -9 -32 -21 -44 -13 -14 -18 -27 -13 -36 14 -22 13 -36 -3 -50
-12 -10 -17 -9 -24 5 -7 12 -23 17 -52 17 -24 0 -53 7 -65 16 -29 20 -29 59 1
69 20 7 18 8 -13 14 -32 5 -35 9 -38 43 -2 27 3 43 19 59 20 20 21 25 10 55
-14 40 -7 61 15 43 11 -9 18 -8 33 5 25 22 39 129 21 151 -16 19 -35 5 -44
-30 -4 -14 -14 -25 -22 -25 -14 0 -15 8 -9 48 11 76 27 83 88 38 24 -17 29
-18 41 -5 21 22 -10 119 -39 119 -28 0 -45 19 -45 50 0 14 -4 30 -8 36 -11 17
-113 47 -124 36 -13 -13 -12 -61 1 -95 17 -44 -11 -66 -39 -32 -20 24 -30 18
-55 -37 -27 -58 -25 -78 11 -121 13 -16 24 -38 24 -51 0 -26 48 -71 76 -71 34
0 29 -40 -8 -63 -54 -34 -109 -97 -102 -117 5 -11 14 -15 28 -11 25 6 83 -13
90 -30 2 -6 -7 -27 -20 -46 -21 -29 -30 -34 -54 -30 -17 2 -30 8 -30 13 0 14
-33 10 -54 -6 -27 -21 -32 -19 -46 15 -12 28 -14 29 -30 15 -9 -8 -40 -21 -69
-29 -45 -12 -54 -11 -67 1 -8 9 -23 13 -33 10 -10 -2 -29 2 -42 9 -13 7 -29
13 -35 14 -18 0 -25 -29 -13 -52 6 -12 12 -36 13 -54 3 -41 21 -63 45 -57 19
5 32 -20 24 -44 -5 -14 -35 -17 -47 -6 -4 4 -15 8 -24 8 -14 0 -16 8 -14 46 3
44 2 47 -25 52 -15 3 -38 8 -50 12 -20 7 -22 5 -17 -27 7 -41 -17 -69 -44 -51
-23 14 -28 61 -8 69 14 5 14 8 1 21 -16 15 -19 65 -6 98 8 19 8 19 20 -3 24
-45 50 -16 30 34 -13 32 -12 84 2 99 18 18 8 50 -26 88 -28 32 -33 43 -28 71
4 28 1 36 -17 46 -20 11 -22 18 -17 59 4 36 1 54 -13 76 -28 42 -17 120 22
159 34 35 27 47 -31 49 -38 2 -41 4 -41 30 0 28 3 31 52 41 15 3 29 14 32 24
8 25 60 42 158 52 46 5 96 13 111 19 50 19 59 15 55 -26 -3 -33 -6 -38 -26
-36 -33 4 -61 -14 -73 -45 -8 -21 -7 -29 9 -42 11 -8 25 -25 31 -37 7 -13 21
-23 32 -23 23 0 36 -27 21 -42 -8 -8 -20 -7 -42 4 -41 20 -98 4 -107 -31 l-6
-24 -16 22 c-17 22 -17 22 -39 2 -18 -15 -30 -17 -52 -11 -31 9 -57 -4 -60
-30 -5 -34 1 -48 21 -53 18 -5 20 -12 18 -63 -3 -56 -2 -58 27 -68 53 -20 72
-35 78 -64 4 -15 24 -45 46 -66 32 -31 41 -48 46 -87 4 -27 11 -52 15 -55 5
-3 9 -13 9 -23 0 -19 29 -51 46 -51 6 0 18 24 28 54 19 54 19 71 0 204 -4 27
-2 48 5 55 6 6 11 25 11 42 1 33 30 126 47 147 17 21 25 56 13 63 -13 8 -13
95 -1 128 13 33 37 40 86 23 40 -14 40 -14 78 22 20 20 37 44 37 53 0 20 -62
69 -88 69 -26 0 -54 33 -46 54 4 9 20 24 37 33 29 14 31 14 43 -3 39 -56 104
-87 104 -49 0 22 46 30 66 11 22 -22 2 -46 -37 -46 -28 0 -38 -13 -19 -25 5
-3 37 -1 71 4 61 10 63 10 100 -20 44 -35 57 -32 51 10 -2 19 2 36 11 45 22
23 12 135 -15 156 -10 9 -25 27 -32 40 -7 16 -20 25 -34 24 -29 -1 -28 10 4
52 30 39 43 42 67 14 21 -25 47 -16 47 17 0 17 -7 27 -21 30 -20 6 -21 7 -5
18 44 33 82 -18 88 -118 3 -34 6 -38 25 -34 12 2 20 0 17 -4 -3 -5 4 -9 15 -9
28 0 26 15 -4 42 -22 19 -25 29 -23 84 1 39 -3 68 -11 78 -11 13 -11 19 -1 31
15 18 54 16 56 -2 1 -7 2 -17 3 -23 0 -5 15 -10 32 -10 29 0 31 2 24 28 -9 35
-31 60 -59 64 -18 3 -22 12 -29 66 l-9 62 -33 0 c-20 0 -45 -9 -62 -23 -15
-13 -80 -57 -143 -97 -63 -40 -155 -99 -205 -131 -49 -33 -95 -59 -101 -59 -7
0 -34 -11 -61 -24 -54 -27 -141 -55 -253 -81 -41 -9 -115 -37 -164 -62 -89
-44 -89 -44 -190 -43 -121 2 -149 0 -158 -14 -5 -7 -8 -6 -8 3 0 10 -3 11 -14
2 -9 -8 -21 -8 -40 -1 -28 10 -33 29 -14 48 19 19 38 14 48 -10 l9 -23 0 23
c1 32 -42 72 -76 72 -37 0 -71 -24 -75 -52 -4 -33 -44 -49 -103 -43 -27 3 -73
2 -102 -3 -49 -8 -57 -7 -140 34 -48 24 -117 52 -153 64 -87 26 -130 54 -130
82 0 13 -4 29 -9 37 -8 12 -12 12 -26 -2 -26 -26 -35 -20 -35 23 0 54 -24 67
-65 34 -41 -33 -71 -30 -141 12 -32 20 -91 51 -131 69 -39 18 -91 51 -116 74
-24 23 -50 41 -56 41 -7 0 -32 11 -55 25 -43 25 -46 25 -242 23 l-199 -3 33
-32 c17 -17 32 -38 32 -46 0 -8 11 -25 25 -38 13 -13 25 -33 25 -43 0 -22 58
-86 78 -86 37 0 50 -151 22 -260 -13 -52 -14 -64 -4 -103 4 -17 1 -38 -7 -53
-11 -22 -10 -30 6 -62 31 -60 33 -62 66 -50 25 9 29 15 25 33 -6 23 14 48 57
69 12 6 23 22 25 34 3 18 -1 22 -22 22 -33 0 -59 27 -53 57 3 17 0 23 -14 23
-13 0 -19 7 -19 23 0 13 -6 37 -14 53 -31 67 23 255 69 238 10 -4 19 4 29 27
20 49 23 49 70 23 77 -43 96 -67 96 -121 0 -26 9 -75 20 -107 25 -73 26 -167
3 -202 -15 -23 -20 -25 -65 -19 l-49 7 6 -33 c8 -47 -26 -112 -63 -119 -26 -6
-25 -7 22 -28 54 -25 56 -24 78 35 20 55 68 53 68 -2 0 -19 -10 -63 -25 -110
-4 -13 1 -28 12 -40 10 -11 35 -40 55 -65 55 -68 116 -130 128 -130 5 0 10 6
10 13 0 8 11 20 24 27 26 13 102 4 185 -22 31 -9 36 -8 52 13 30 39 29 68 -1
103 -14 17 -30 39 -33 49 -5 12 -15 17 -33 15 -20 -2 -28 3 -35 21 -9 22 -8
23 21 18 25 -6 30 -3 30 13 0 11 -7 21 -15 22 -8 0 -21 1 -27 2 -21 2 -24 32
-14 123 7 62 6 94 -3 119 -7 19 -9 38 -6 44 14 22 88 7 233 -48 76 -29 174
-50 277 -58 84 -7 92 -9 125 -41 19 -18 49 -42 67 -53 18 -11 41 -36 52 -57
31 -60 83 -95 143 -96 46 -1 51 -3 66 -33 8 -18 28 -38 44 -45 26 -11 32 -9
51 9 17 17 23 39 28 102 8 93 19 112 63 108 29 -3 31 -6 32 -44 1 -43 37 -104
61 -104 16 0 33 -39 26 -57 -8 -19 -21 -15 -28 8 -10 31 -29 7 -21 -26 5 -18
12 -25 21 -21 9 3 19 -3 26 -15 9 -17 7 -25 -12 -45 -22 -24 -22 -26 -7 -57
14 -28 38 -133 38 -165 0 -7 -11 -17 -25 -22 -14 -5 -25 -14 -25 -19 0 -4 -12
-11 -27 -15 -17 -3 -36 -19 -48 -38 -11 -18 -28 -34 -38 -36 -14 -3 -17 4 -17
38 0 71 -32 107 -44 50 -5 -28 -8 -30 -28 -19 -18 10 -24 8 -35 -7 -23 -32
-16 -72 16 -88 24 -13 29 -23 34 -63 3 -26 4 -50 2 -52 -8 -7 -54 55 -60 82
-5 18 -12 27 -23 25 -14 -3 -17 5 -14 41 3 57 -11 76 -43 55 -21 -14 -24 -13
-50 21 -23 30 -26 42 -20 73 4 20 3 33 -2 29 -8 -9 -9 -13 -12 -42 0 -8 -7
-12 -15 -9 -17 7 -30 -12 -19 -28 4 -7 6 -21 4 -32 -4 -29 18 -73 46 -85 21
-10 29 -9 45 5 16 15 20 16 33 3 9 -9 12 -23 8 -37 -5 -20 -11 -23 -35 -20
-16 3 -33 -1 -39 -9 -12 -14 -51 -18 -63 -6 -4 4 -17 8 -29 8 -17 0 -23 7 -25
30 -2 17 -9 35 -16 40 -30 25 -25 77 10 98 20 12 17 61 -4 80 -10 10 -21 14
-25 11 -3 -4 -18 -8 -33 -10 -14 -1 -33 -12 -41 -23 -8 -12 -22 -21 -32 -21
-11 0 -21 -7 -25 -15 -3 -8 -16 -15 -30 -15 -30 0 -42 -30 -26 -60 6 -12 18
-43 26 -69 20 -70 39 -83 115 -79 76 4 85 -12 29 -50 -28 -18 -42 -22 -75 -17
-67 11 -76 16 -91 51 -8 19 -17 34 -20 34 -3 0 -19 -11 -36 -25 -38 -32 -55
-32 -70 1 -11 24 -15 25 -57 19 -26 -4 -47 -11 -49 -16 -6 -16 -31 -9 -56 16
-34 34 -43 54 -41 92 2 30 1 31 -34 30 -54 -2 -63 8 -55 58 14 98 -27 115 -68
27 -27 -60 -39 -99 -41 -144 -1 -14 -4 -25 -6 -23 -2 2 -11 -3 -19 -12 -15
-14 -17 -14 -27 1 -5 10 -25 40 -42 68 -18 27 -33 62 -33 78 0 48 -9 60 -46
60 -24 0 -37 6 -45 22 -13 23 -21 33 -53 58 -18 14 -19 13 -14 -23 3 -26 0
-37 -9 -37 -7 0 -13 4 -13 9 0 13 -39 25 -67 22 -12 -1 -52 5 -88 14 -37 10
-78 15 -93 12 -16 -3 -42 3 -64 14 -40 21 -68 25 -68 10 0 -25 25 -70 58 -103
20 -21 31 -38 25 -38 -6 0 -14 -12 -17 -26 -5 -17 -12 -24 -21 -20 -8 3 -17 1
-20 -4 -4 -6 -19 -10 -35 -10 -19 0 -33 -7 -40 -20 -9 -16 -15 -18 -30 -10
-11 6 -20 16 -20 23 0 27 -122 77 -187 77 -32 0 -43 4 -43 15 0 8 -4 15 -10
15 -5 0 -10 12 -10 28 0 19 10 35 35 55 21 17 32 33 29 42 -8 19 12 44 43 56
32 12 29 26 -12 50 -39 24 -58 73 -58 151 0 44 -2 47 -23 42 -27 -7 -64 3 -64
18 0 6 20 28 45 50 49 44 60 74 23 65 -106 -26 -160 -36 -175 -30 -10 4 -37
23 -61 42 l-43 36 48 21 c41 18 52 19 78 8 46 -18 73 -2 98 56 21 51 41 62 66
38 10 -11 16 -9 31 10 25 31 30 28 30 -17 0 -22 6 -44 15 -51 8 -7 15 -24 15
-39 0 -21 7 -29 33 -39 46 -16 57 -15 57 7 0 10 7 24 15 31 8 7 15 26 15 42 0
27 2 29 33 26 26 -2 34 -9 42 -35 5 -18 15 -33 22 -33 11 0 11 5 3 20 -6 11
-8 25 -4 32 4 6 8 26 10 45 2 19 6 43 9 54 5 14 2 17 -9 13 -8 -3 -25 5 -37
17 l-23 23 27 9 c32 10 37 49 9 69 -10 7 -24 35 -32 61 -13 49 -38 70 -70 59
-33 -11 -98 -58 -106 -77 -10 -23 -53 -33 -65 -14 -10 17 7 49 26 49 28 0 14
15 -33 38 -49 24 -57 24 -160 -4 -40 -11 -12 -69 37 -79 45 -8 34 -15 -25 -15
-32 0 -65 4 -73 9 -10 6 -27 3 -52 -10 -59 -30 -79 -22 -69 26 1 5 -8 1 -19
-9 -11 -10 -20 -28 -19 -40 2 -32 -42 -110 -56 -96 -10 10 -11 87 -1 119 8 26
-10 44 -35 36 -17 -5 -20 -12 -16 -30 3 -13 3 -26 -1 -28 -16 -10 -54 14 -63
39 -6 15 -13 24 -17 20 -9 -9 -29 24 -37 61 -5 22 -17 36 -41 47 -19 9 -37 21
-40 26 -7 12 13 52 32 63 12 7 11 11 -4 22 -18 14 -20 17 -22 60 -1 23 -5 25
-51 25 -27 0 -49 -3 -48 -7 0 -5 -2 -16 -7 -27 -6 -13 -3 -21 8 -28 11 -5 17
-22 17 -42 0 -20 8 -40 20 -51 25 -23 27 -75 3 -75 -9 0 -27 9 -39 21 l-22 20
-27 -25 c-24 -22 -25 -27 -11 -32 28 -11 10 -92 -27 -127 -29 -27 -94 -56
-127 -57 -8 -1 -29 -20 -46 -43 -25 -34 -29 -46 -21 -64 13 -29 3 -51 -28 -63
-14 -5 -29 -20 -34 -33 -5 -13 -24 -39 -43 -59 -31 -33 -36 -35 -97 -34 l-65
1 -9 34 c-4 19 -6 43 -4 53 7 24 4 23 -32 -13 -17 -17 -31 -39 -31 -50 0 -14
-7 -19 -29 -19 -24 0 -30 -5 -34 -30 -7 -34 -32 -40 -40 -10 -4 14 -14 20 -35
20 -44 0 -56 44 -26 102 13 25 14 36 4 56 -7 17 -8 28 0 36 12 12 14 46 2 46
-5 0 -14 -11 -20 -25 -6 -14 -16 -25 -22 -25 -12 0 -12 29 -1 87 6 31 4 50 -6
69 -12 25 -11 29 9 51 17 18 31 23 58 21 35 -3 35 -3 32 -47 -3 -29 0 -41 7
-37 6 4 11 17 11 30 0 12 4 26 10 32 11 11 -2 69 -16 69 -19 1 -115 68 -126
88 -9 17 -8 23 7 32 87 51 101 71 58 81 -15 4 -45 16 -66 27 -23 13 -41 17
-45 12 -4 -6 -17 -16 -29 -23 -19 -10 -23 -10 -24 0 -1 7 -2 18 -4 23 -1 6 -3
16 -3 23 -2 9 -150 12 -702 12 l-700 0 16 -25 c25 -38 8 -43 -27 -7 l-30 31
-611 0 c-472 1 -609 -2 -600 -11 19 -19 14 -28 -18 -28 -19 0 -34 7 -42 20
-13 20 -24 20 -470 20 l-457 0 7 -52 c10 -79 8 -141 -4 -145 -6 -2 -14 11 -18
28 -8 42 -19 30 -20 -23 -1 -32 -6 -45 -22 -53 -11 -5 -35 -22 -53 -37 -28
-24 -31 -30 -20 -50 6 -13 18 -30 26 -39 15 -18 7 -53 -11 -46 -50 19 -55 18
-70 -12 -13 -25 -14 -30 -1 -35 8 -3 17 -1 20 4 4 6 22 10 40 10 26 0 39 -6
51 -25 15 -23 15 -27 1 -49 -17 -26 -92 -66 -122 -66 -10 0 -33 -5 -51 -12
-59 -21 -53 -60 11 -72 22 -4 35 -13 35 -22 0 -38 -25 -111 -45 -134 -16 -18
-23 -37 -23 -66 1 -23 -2 -47 -6 -53 -13 -21 -26 0 -26 44 0 24 -9 85 -19 137
-15 75 -17 108 -10 164 5 38 13 116 19 173 6 67 16 114 27 130 15 23 23 49 40
133 4 20 13 28 38 32 18 4 40 3 49 0 11 -4 26 2 41 16 19 18 27 20 43 11 34
-18 39 8 7 33 -16 13 -25 28 -22 33 17 27 -5 43 -58 43 -52 0 -53 -1 -79 -45
-15 -25 -31 -45 -36 -45 -8 0 -14 -20 -45 -160 -15 -64 -35 -97 -53 -86 -5 3
-12 34 -16 68 -4 35 -14 82 -23 106 -16 43 -16 43 12 72 27 28 27 30 11 55
-21 31 -83 35 -109 7 -22 -24 -33 -82 -18 -91 8 -5 6 -15 -9 -34 -27 -34 -35
-34 -71 2 -29 30 -40 83 -19 96 5 3 10 17 10 31 0 22 -4 24 -46 24 -25 0 -54
-5 -65 -10 -12 -7 -25 -7 -37 -1 -11 6 -24 6 -36 -1 -12 -7 -21 -7 -29 1 -7 7
-67 11 -169 11 l-158 0 0 -83z m2690 51 c17 -16 20 -31 18 -106 -2 -78 -5 -91
-30 -127 -16 -21 -43 -45 -60 -52 -17 -7 -28 -16 -24 -20 3 -4 12 -1 18 5 7 7
25 12 41 12 20 0 30 6 34 20 3 11 9 20 14 20 12 0 11 -7 -3 -47 -10 -28 -20
-36 -57 -47 -57 -16 -76 -11 -79 19 -1 14 -11 34 -22 45 -11 11 -20 24 -20 29
0 5 -18 16 -39 25 -34 13 -41 21 -46 53 -4 21 -11 60 -16 87 -8 44 -7 52 12
72 27 29 43 32 152 31 70 -1 92 -5 107 -19z m330 -55 c0 -12 20 -43 45 -70 28
-30 43 -54 40 -64 -7 -21 45 -41 84 -33 77 15 101 27 101 49 0 21 25 53 34 44
11 -12 35 -82 31 -90 -3 -4 -30 -7 -60 -5 -64 4 -76 -6 -46 -38 23 -24 28 -46
10 -46 -5 0 -29 4 -52 9 -23 6 -59 13 -79 16 -30 5 -41 13 -54 40 -16 35 -36
38 -33 7 3 -34 -2 -34 -33 -2 -40 39 -69 51 -107 44 -27 -6 -28 -4 -34 37 -7
52 2 70 62 131 l46 47 22 -27 c13 -15 23 -37 23 -49z m3928 -4 c22 -21 31 -37
27 -48 -4 -9 -9 -28 -12 -43 -6 -29 -21 -36 -40 -17 -8 8 -16 4 -28 -15 -37
-56 -78 -8 -56 66 13 44 46 88 65 88 6 0 26 -14 44 -31z m-6758 -271 c0 -16
-4 -38 -10 -48 -5 -10 -12 -42 -16 -72 -11 -96 -57 -107 -67 -16 -8 60 -9 153
-3 159 2 2 25 4 50 5 44 1 46 0 46 -28z m3382 11 c2 -16 11 -23 36 -25 24 -3
47 -18 83 -55 27 -28 49 -57 49 -65 0 -8 9 -14 19 -14 22 0 37 -36 47 -111 4
-30 3 -49 -3 -49 -17 0 -35 27 -31 47 1 10 -5 29 -15 43 -9 13 -17 32 -17 42
0 26 -17 22 -36 -7 -9 -14 -28 -28 -43 -31 -14 -4 -31 -11 -38 -16 -8 -6 -31
3 -71 30 -79 53 -92 44 -92 -61 0 -63 -3 -78 -18 -86 -21 -11 -79 11 -88 34
-10 25 -18 18 -38 -33 -10 -26 -30 -59 -43 -73 -20 -21 -23 -35 -22 -85 2
-101 0 -113 -20 -133 -10 -10 -23 -31 -28 -47 -12 -36 -25 -37 -37 -3 -11 32
18 105 46 112 30 8 23 46 -11 58 -32 11 -44 35 -61 114 -15 70 -20 85 -29 85
-5 0 -4 -21 1 -47 5 -27 6 -59 2 -73 -4 -14 -6 -35 -5 -48 2 -13 -5 -34 -13
-47 -19 -29 -20 -45 -3 -45 32 0 54 -88 42 -166 l-7 -47 -24 29 c-13 16 -28
46 -34 67 -8 28 -16 37 -33 37 -12 0 -31 3 -42 6 -11 3 -28 -1 -38 -9 -18 -13
-18 -15 8 -46 l28 -32 -21 -29 c-18 -24 -19 -30 -7 -40 9 -7 12 -22 9 -40 -5
-21 -1 -31 17 -43 17 -12 19 -19 11 -29 -6 -7 -17 -32 -25 -55 -13 -38 -12
-42 4 -56 15 -13 16 -20 6 -46 -13 -35 -35 -39 -68 -12 -21 16 -23 27 -24 117
-1 54 -5 203 -10 330 -6 175 -5 239 5 268 14 42 7 59 -14 31 -8 -11 -20 -16
-29 -12 -22 8 -13 28 23 52 16 11 31 29 32 40 2 11 13 25 26 31 12 6 33 21 46
33 12 11 28 21 34 21 7 0 18 11 24 25 10 22 16 25 42 19 17 -4 44 -17 59 -30
35 -30 67 -32 67 -4 0 11 7 20 15 20 9 0 26 12 39 26 16 20 28 25 44 20 12 -4
21 -10 21 -14 -4 -23 5 -30 42 -35 52 -7 75 12 85 69 5 36 3 42 -20 57 -14 10
-26 25 -26 35 0 15 11 18 84 20 80 2 85 1 88 -19z m3827 -105 c58 -55 56 -79
-5 -50 -16 7 -42 17 -58 20 -26 6 -27 6 -12 -9 20 -20 20 -35 0 -63 -16 -24
-39 -29 -49 -11 -14 21 -17 117 -5 139 19 35 77 23 129 -26z m-1414 -84 c3
-10 3 -36 -1 -56 l-7 -37 42 7 c38 6 55 -4 31 -19 -5 -3 -10 -37 -10 -74 0
-67 0 -68 -42 -104 -27 -24 -44 -33 -49 -26 -5 9 -15 9 -40 0 -22 -8 -36 -8
-43 -1 -5 5 -24 10 -40 9 -17 0 -25 -3 -18 -6 6 -2 12 -11 12 -19 0 -7 -6 -12
-12 -10 -7 1 -10 1 -5 -1 4 -3 7 -15 7 -27 0 -23 -12 -32 -84 -61 l-40 -16 37
-19 c20 -11 44 -20 52 -20 9 0 26 -7 39 -15 13 -9 43 -17 65 -18 41 -1 41 -2
16 -14 -31 -17 -32 -29 -4 -44 63 -34 103 -111 62 -121 -34 -8 -52 2 -47 26 6
33 -37 60 -80 52 -26 -5 -31 -11 -33 -35 -2 -23 6 -35 33 -56 41 -32 38 -40
-15 -36 -22 1 -42 -2 -45 -7 -11 -18 -56 0 -74 30 -15 26 -21 29 -51 23 -18
-3 -66 -9 -107 -11 -62 -4 -74 -3 -74 10 0 11 -9 16 -28 16 -32 0 -52 16 -52
41 0 10 -9 24 -20 32 -11 8 -22 31 -26 55 -4 24 -11 45 -15 48 -5 3 -9 13 -10
22 0 22 -81 81 -120 89 -35 7 -48 41 -30 79 11 26 7 44 -10 44 -5 0 -9 -11 -9
-24 0 -14 -7 -32 -16 -41 -15 -14 -19 -14 -46 2 -17 10 -36 33 -44 51 -7 18
-9 30 -4 27 5 -3 25 2 44 12 34 16 37 16 56 -2 16 -14 23 -15 34 -6 17 14 36
7 36 -14 0 -20 44 -47 64 -39 15 6 17 10 20 41 2 15 86 73 108 73 9 0 20 -9
23 -20 3 -11 12 -20 19 -20 8 0 20 -10 29 -22 13 -21 18 -22 46 -11 30 11 33
10 41 -13 11 -28 35 -31 76 -10 15 9 40 12 56 9 17 -3 28 -1 28 6 0 6 7 11 16
11 9 0 34 15 57 34 23 18 74 44 112 56 39 13 76 29 84 36 14 13 6 38 -10 29
-31 -20 -62 63 -38 106 13 25 46 24 54 -1z m-5753 -31 c12 -27 17 -30 48 -26
19 2 59 14 89 25 45 18 71 21 156 18 136 -4 170 -20 208 -98 30 -62 48 -138
40 -169 -6 -22 -31 -25 -59 -5 -11 8 -31 16 -44 18 -27 3 -31 26 -14 77 7 22
5 23 -21 17 -37 -9 -47 8 -29 50 14 32 13 34 -13 48 -36 18 -85 22 -153 12
-70 -11 -72 -12 -58 -41 9 -20 8 -28 -5 -43 -10 -10 -17 -31 -17 -46 0 -24 -3
-26 -32 -23 -58 6 -71 19 -60 59 9 33 8 37 -15 47 -21 10 -27 9 -37 -5 -12
-15 -15 -15 -39 1 -31 20 -34 43 -12 85 20 39 49 39 67 -1z m905 -127 c18 -51
16 -72 -8 -112 -47 -76 -75 -136 -71 -152 7 -34 -79 -298 -97 -298 -4 0 -14
16 -21 36 -8 20 -27 42 -42 50 -40 21 -68 54 -68 82 0 34 59 170 85 195 14 14
28 50 40 100 15 66 21 78 41 83 14 4 30 14 37 24 12 17 76 42 86 33 3 -2 11
-20 18 -41z m2474 -4 c2 -22 -3 -43 -11 -48 -4 -3 -12 -29 -19 -58 -18 -85
-102 -229 -142 -244 -10 -4 -19 -16 -19 -26 0 -10 -9 -29 -20 -42 -14 -16 -20
-37 -20 -71 0 -59 -17 -99 -42 -99 -10 0 -18 -4 -18 -10 0 -5 -7 -10 -16 -10
-8 0 -13 4 -10 9 3 5 -6 16 -19 25 -27 18 -25 39 2 29 15 -6 15 -5 1 16 -26
37 -6 71 41 71 14 0 33 7 43 17 19 17 24 63 9 79 -5 5 -11 25 -13 44 -3 32 -6
35 -40 38 -20 2 -39 9 -42 18 -7 19 21 104 44 129 9 11 20 33 24 48 5 22 12
28 29 25 18 -2 21 -8 19 -35 -3 -29 0 -33 21 -33 25 0 49 21 60 53 4 9 13 17
20 17 8 0 21 7 28 17 15 17 69 53 82 53 4 0 8 -6 8 -12z m1128 2 c26 0 29 -4
41 -61 14 -65 8 -78 -31 -79 -10 0 -20 -11 -23 -26 -7 -26 -86 -108 -155 -159
-22 -16 -40 -32 -40 -35 -1 -3 10 -18 23 -35 22 -26 27 -29 45 -17 26 15 66
15 91 0 16 -10 24 -10 40 0 11 6 26 12 34 12 41 0 95 -160 66 -194 -7 -9 -20
-16 -29 -16 -15 0 -65 -46 -101 -93 -13 -18 -11 -18 36 -12 27 4 63 18 81 31
41 31 93 43 93 22 0 -8 -12 -20 -27 -27 -33 -15 -20 -30 33 -35 23 -2 54 -10
70 -18 45 -23 83 -30 104 -18 16 8 26 7 45 -7 13 -10 25 -24 25 -30 0 -8 13
-13 33 -13 55 0 139 -29 144 -50 3 -11 20 -28 39 -39 19 -11 34 -28 34 -38 0
-13 -3 -14 -12 -5 -7 7 -20 12 -31 12 -10 0 -35 9 -55 20 -53 28 -73 33 -110
31 -26 -2 -35 2 -39 18 -6 23 -24 27 -52 11 -10 -5 -46 -57 -80 -115 -34 -58
-65 -105 -70 -105 -5 0 -12 12 -15 28 -4 15 -9 34 -12 43 -4 16 10 36 68 97
34 36 32 38 -16 18 -44 -18 -76 -61 -76 -101 0 -18 -7 -48 -15 -66 l-14 -34
-2 50 c-1 28 -3 42 -6 33 -2 -10 -9 -18 -14 -18 -5 0 -7 11 -3 25 4 14 7 39 8
54 1 16 8 36 16 46 14 17 13 18 -5 11 -32 -12 -40 -12 -40 3 0 7 27 26 60 41
46 22 54 28 35 29 -30 1 -98 -33 -122 -61 -21 -23 -23 -70 -7 -117 14 -41 -1
-63 -26 -37 -9 9 -20 16 -25 16 -4 0 -13 14 -19 32 -15 43 -22 32 -11 -17 5
-22 9 -49 9 -60 -1 -11 -7 4 -14 34 -9 37 -22 61 -42 77 -36 29 -46 30 -38 2
6 -22 5 -22 -6 -3 -7 11 -17 23 -22 27 -6 3 -10 23 -9 45 1 31 -1 35 -9 20
-13 -23 5 -96 31 -130 21 -27 33 -92 14 -76 -7 6 -27 35 -44 65 -16 30 -37 54
-45 54 -14 0 -14 -3 0 -30 22 -42 13 -37 -20 10 -15 22 -32 37 -37 34 -21 -13
29 53 71 95 34 33 41 45 30 52 -8 5 -21 6 -31 3 -9 -2 -19 0 -23 6 -3 5 -13
10 -22 10 -11 0 -14 -6 -8 -27 5 -23 -2 -35 -62 -95 -37 -37 -74 -68 -82 -68
-8 0 -25 -10 -38 -22 -21 -20 -27 -21 -55 -10 -23 8 -35 9 -45 1 -21 -18 -28
18 -13 70 16 57 15 90 -6 154 -15 45 -15 61 -5 131 16 99 34 146 58 147 10 1
25 2 33 3 8 2 37 3 64 4 47 2 48 3 33 20 -12 13 -17 36 -17 74 0 89 -31 163
-49 116 -23 -61 -52 -33 -32 32 9 31 15 37 31 33 13 -4 20 0 20 10 0 30 26 40
60 22 32 -16 33 -16 61 11 23 22 32 25 41 16 9 -9 17 -7 34 9 19 18 25 19 43
8 17 -12 23 -10 46 11 19 18 25 33 25 66 0 43 15 57 48 48 8 -2 26 -4 41 -4z
m-991 -91 c2 -37 8 -47 32 -61 19 -11 32 -29 38 -55 6 -21 12 -162 14 -313 3
-269 3 -275 -17 -275 -16 0 -19 6 -17 31 5 47 -16 58 -69 36 l-44 -19 -34 23
c-27 18 -38 21 -57 12 -12 -6 -25 -17 -28 -24 -5 -14 29 -44 50 -44 18 0 24
-38 8 -51 -8 -6 -25 -9 -38 -5 -36 9 -39 -19 -20 -161 6 -51 6 -52 -22 -59
-16 -4 -41 -15 -56 -25 -14 -11 -33 -19 -42 -19 -9 0 -16 -4 -16 -10 0 -13 16
-13 57 2 26 9 36 9 45 0 17 -17 -21 -53 -70 -67 l-37 -11 3 -56 c3 -50 2 -57
-18 -63 -25 -8 -36 1 -42 30 -2 14 -14 21 -42 26 -21 3 -46 16 -55 27 -20 25
-94 57 -99 42 -9 -27 -99 5 -132 47 l-21 27 23 13 c31 17 59 16 85 -2 27 -19
51 -10 59 22 10 37 25 6 18 -34 -6 -31 -5 -33 25 -33 24 0 31 4 31 20 0 14 7
20 21 20 35 0 68 44 63 84 -2 22 1 38 11 46 8 7 15 19 15 26 0 8 9 14 20 14
21 0 40 27 40 58 0 17 -7 20 -42 20 -72 0 -79 2 -90 28 -9 20 -8 28 9 47 12
12 24 37 28 55 3 17 12 32 19 32 9 0 15 20 19 55 3 32 14 67 26 84 12 16 21
36 21 43 0 8 9 23 19 32 16 15 23 15 41 6 14 -8 25 -8 29 -3 12 20 53 35 77
29 28 -7 30 0 8 25 -11 12 -20 49 -25 104 -8 78 -7 89 15 139 26 59 39 71 76
71 17 0 26 6 28 20 4 23 31 47 47 42 5 -2 11 -23 13 -48z m-890 -359 c-2 -222
-7 -353 -13 -359 -7 -7 -19 -3 -36 13 -14 13 -40 31 -57 40 -17 9 -35 24 -41
33 -8 14 -13 15 -33 6 -12 -7 -32 -13 -43 -15 -12 -2 -21 -12 -23 -26 -2 -12
-14 -30 -28 -38 -13 -9 -24 -25 -24 -35 0 -23 -25 -35 -43 -22 -6 6 -33 13
-59 16 -35 5 -47 3 -52 -8 -13 -35 -27 -13 -24 37 3 50 5 53 32 58 42 7 56 34
30 60 -11 11 -31 22 -44 25 -38 7 -42 18 -28 75 15 63 34 74 51 31 12 -34 28
-39 46 -17 9 11 10 20 1 35 -9 18 -8 21 10 21 11 0 24 8 27 17 4 9 15 25 25
35 20 20 23 40 8 67 -7 14 -5 23 10 36 11 10 20 28 20 41 0 24 79 84 110 84
16 0 111 66 118 82 8 18 44 58 54 58 6 0 9 -117 6 -350z m-2568 284 c31 -47
33 -74 6 -74 -20 0 -25 -19 -14 -55 4 -16 8 -36 8 -42 0 -18 -47 -16 -54 2 -8
22 -33 18 -47 -6 -8 -16 -8 -23 0 -28 8 -6 8 -16 0 -40 -9 -24 -16 -31 -32
-29 -18 3 -21 10 -22 52 0 28 5 55 13 62 9 10 10 19 2 33 -17 33 -12 58 14 65
31 8 45 45 21 58 -15 9 -15 11 1 29 9 10 30 19 45 19 22 0 34 -10 59 -46z
m1789 -78 c6 -8 14 -58 18 -112 8 -128 8 -146 -1 -165 -5 -11 1 -26 18 -44 14
-15 27 -32 29 -38 3 -9 7 -9 18 -1 8 7 31 14 52 16 l37 4 0 -43 c0 -35 -3 -43
-18 -43 -10 0 -23 5 -30 12 -11 11 -13 9 -28 -40 -2 -7 3 -26 11 -43 l16 -29
-39 0 c-29 0 -43 -7 -64 -30 -28 -32 -47 -38 -50 -17 -2 16 -5 91 -13 321 -9
225 5 300 44 252z m7027 -101 c-3 -12 3 -28 16 -42 21 -23 24 -45 18 -125 -2
-24 -8 -38 -17 -38 -7 0 -13 5 -13 10 0 6 -6 10 -13 10 -13 0 -32 31 -56 94
-10 23 -14 26 -26 16 -8 -7 -15 -22 -16 -34 0 -18 -2 -17 -11 7 -5 15 -13 27
-18 27 -4 0 -13 14 -20 31 -11 26 -11 33 3 46 14 15 18 15 41 -1 26 -16 26
-16 46 16 11 18 20 37 20 42 0 5 12 -1 26 -15 16 -15 23 -30 20 -44z m-8913
-201 c9 -4 17 -14 17 -23 0 -9 5 -22 12 -29 9 -9 7 -20 -5 -49 -10 -21 -16
-51 -15 -67 3 -25 -2 -32 -24 -40 -15 -5 -31 -6 -35 -2 -8 8 -6 180 3 209 3
10 11 16 17 13 7 -3 20 -9 30 -12z m10532 -180 c1 -43 6 -68 15 -74 8 -5 10
-16 6 -31 -4 -13 -11 -62 -15 -109 -8 -74 -6 -90 10 -122 10 -20 23 -39 29
-43 16 -10 12 -45 -5 -45 -8 0 -15 5 -15 10 0 6 -12 10 -26 10 -29 0 -89 54
-78 71 3 6 1 22 -6 35 -10 18 -16 21 -26 13 -17 -14 -45 -4 -40 13 1 7 1 10
-1 6 -7 -12 -58 8 -61 24 -4 19 34 34 51 20 7 -5 27 -12 45 -14 25 -4 32 -1
32 12 0 9 5 21 12 28 18 18 47 141 48 203 0 53 7 76 19 64 3 -3 6 -35 6 -71z
m-7597 -52 c2 -18 -1 -32 -7 -32 -17 0 -13 -35 7 -52 9 -8 34 -15 54 -15 20
-1 41 -4 47 -8 22 -13 10 -45 -29 -81 -22 -21 -40 -45 -40 -55 0 -25 -21 -35
-32 -15 -11 19 -41 21 -68 4 -15 -10 -24 -10 -38 -2 -22 15 -22 87 1 112 10
10 17 30 17 45 0 14 4 28 9 31 4 3 11 20 15 38 7 35 34 70 50 65 6 -2 12 -18
14 -35z m2366 -303 c-5 -9 6 -10 39 -5 44 7 45 6 52 -23 6 -29 -8 -71 -23 -71
-5 0 -13 5 -18 10 -7 7 -16 4 -29 -10 -18 -19 -18 -23 -2 -73 26 -82 -3 -144
-50 -106 -8 7 -30 12 -48 11 -42 -4 -65 19 -65 66 0 46 15 73 23 43 3 -12 12
-21 21 -21 17 0 17 10 1 142 -5 36 -4 36 31 36 19 0 38 3 41 6 11 11 34 6 27
-5z m4290 -35 c18 -7 22 -24 5 -24 -6 0 -24 -10 -41 -21 -27 -20 -29 -26 -24
-61 9 -56 -17 -61 -94 -17 -8 5 -30 15 -47 23 -18 8 -33 21 -33 29 0 8 -7 17
-15 21 -8 3 -15 12 -15 21 0 16 15 20 24 6 3 -5 16 -7 28 -4 14 4 26 0 35 -13
12 -16 16 -17 36 -4 22 13 106 49 119 50 3 0 13 -3 22 -6z m-5079 -54 c28 -16
61 -30 76 -30 14 0 30 -5 35 -10 25 -25 235 -10 253 18 11 16 43 29 60 25 17
-4 50 -62 69 -123 13 -42 2 -144 -22 -191 -20 -39 -20 -49 -3 -24 23 30 37 8
37 -55 0 -77 -46 -174 -87 -185 -15 -3 -38 -14 -52 -24 -14 -10 -31 -16 -37
-14 -6 2 -17 -4 -25 -13 -12 -14 -10 -19 16 -40 17 -13 31 -35 32 -49 2 -24
-10 -34 -21 -16 -3 4 -23 11 -44 14 -20 4 -46 13 -57 21 -19 14 -19 15 -1 35
22 24 16 26 -30 9 -27 -10 -40 -8 -88 12 -57 23 -67 38 -43 62 20 20 25 41 16
60 -5 10 -5 19 0 23 26 16 71 99 71 131 0 33 -12 45 -25 24 -11 -18 -68 -11
-123 15 -30 14 -65 25 -80 25 l-25 0 21 19 c19 16 21 22 11 50 -6 17 -20 36
-31 42 -13 7 -17 16 -13 30 4 10 3 28 0 40 -6 17 -9 18 -23 7 -14 -12 -15 -9
-9 24 7 45 54 118 76 118 9 0 39 -14 66 -30z m3340 -60 c9 -10 19 -37 22 -59
5 -38 4 -41 -18 -41 -13 0 -39 -2 -57 -6 -24 -5 -38 -2 -52 11 -24 22 -27 81
-5 105 19 21 88 15 110 -10z m1449 -20 c14 -5 26 -16 26 -24 0 -14 25 -23 85
-33 17 -2 40 -11 53 -19 18 -12 30 -12 60 -4 20 7 55 10 77 8 37 -3 40 -5 47
-43 13 -59 6 -181 -9 -177 -8 1 -13 -8 -13 -23 0 -29 -1 -29 -33 -14 -14 6
-30 29 -42 60 l-19 49 -18 -35 -18 -34 -47 29 c-26 16 -63 33 -82 36 -20 4
-54 21 -76 39 -46 37 -87 50 -114 36 -14 -8 -23 -6 -36 9 -10 11 -27 20 -38
20 -16 0 -18 -5 -13 -25 3 -14 9 -36 12 -50 4 -13 3 -32 0 -41 -7 -18 -23 -5
-101 84 -46 51 -37 65 35 56 35 -5 49 -2 59 10 7 8 29 18 50 22 45 8 73 22 66
34 -8 12 23 40 45 40 10 0 30 -4 44 -10z m-6448 -87 c9 -20 13 -49 10 -63 -5
-25 -1 -28 52 -46 31 -10 62 -22 68 -26 7 -5 30 -6 53 -2 l41 7 0 -35 c0 -39
9 -46 105 -73 33 -10 66 -22 72 -27 20 -16 24 -70 10 -112 -13 -35 -18 -39
-53 -42 -46 -4 -71 15 -80 63 -4 23 -15 38 -34 48 -15 8 -34 25 -42 37 -9 13
-35 32 -59 42 -70 29 -73 31 -81 64 -10 38 -25 41 -37 8 -12 -30 -40 -37 -124
-29 l-68 6 -50 -53 c-27 -29 -49 -58 -49 -66 0 -8 -8 -19 -19 -25 -10 -7 -16
-20 -14 -29 3 -10 0 -21 -6 -24 -6 -4 -11 -20 -11 -36 0 -35 -16 -47 -28 -23
-13 24 -21 123 -11 123 5 0 13 18 20 39 7 24 21 43 35 49 12 6 24 21 26 34 4
23 9 25 40 13 13 -5 20 0 28 20 8 22 15 26 35 23 14 -3 26 0 29 8 3 7 17 18
33 26 18 8 29 22 31 38 5 40 34 100 49 100 8 0 21 -17 29 -37z m4541 25 c6 -5
22 -6 36 -3 22 6 26 2 38 -32 6 -21 24 -65 39 -99 15 -33 31 -75 35 -92 6 -28
4 -32 -15 -32 -12 0 -31 5 -43 11 -16 9 -22 9 -25 0 -2 -6 -13 -11 -24 -11
-17 0 -18 -2 -8 -15 7 -8 15 -46 18 -83 3 -55 1 -70 -13 -82 -23 -19 -50 -1
-51 36 -1 39 -22 112 -34 119 -6 4 -26 31 -45 61 -27 41 -33 59 -26 72 7 13 4
31 -10 61 -23 52 -24 61 -4 61 9 0 25 8 36 18 20 20 76 25 96 10z m-540 -97
c50 -25 77 -71 88 -148 5 -42 4 -53 -7 -53 -26 0 -56 29 -51 49 3 12 -3 24
-18 35 -33 23 -44 20 -26 -7 8 -12 18 -37 21 -54 7 -30 6 -32 -19 -27 -15 3
-34 -1 -42 -8 -22 -18 -64 36 -61 77 l3 30 -100 -3 c-122 -3 -133 2 -110 52
10 20 18 36 19 36 0 0 28 11 61 25 75 32 176 31 242 -4z m-2693 13 c9 -3 16
-15 16 -27 0 -11 15 -34 34 -51 25 -23 35 -43 40 -78 4 -26 11 -50 15 -52 4
-3 8 -20 9 -38 0 -18 6 -34 11 -36 6 -2 10 -18 10 -35 -1 -30 -2 -30 -8 -7 -4
16 -14 26 -30 28 -22 3 -23 1 -18 -27 5 -24 2 -33 -12 -41 -18 -9 -18 -8 -8
20 10 27 9 32 -13 48 -14 9 -44 19 -67 22 l-42 6 -7 -63 c-3 -35 -11 -66 -17
-70 -5 -3 -7 -1 -3 5 3 6 2 13 -3 16 -22 14 -32 336 -10 336 6 0 10 -23 24
-120 2 -14 4 -27 5 -30 0 -3 8 11 16 30 11 26 14 52 9 103 -7 63 -6 67 13 67
11 0 27 -3 36 -6z m6302 -11 c3 -10 11 -30 19 -45 12 -25 12 -33 -4 -69 -13
-29 -20 -36 -24 -25 -4 9 -4 23 -1 31 11 27 -16 45 -67 45 -42 0 -53 -5 -79
-31 -16 -18 -30 -33 -30 -35 0 -1 3 -10 6 -19 6 -14 8 -14 31 0 22 15 26 14
50 -5 14 -11 40 -20 58 -20 17 0 34 -3 37 -6 10 -9 -26 -84 -43 -89 -11 -4
-18 -22 -22 -58 -4 -28 -11 -53 -17 -55 -5 -2 -10 -10 -10 -18 0 -7 -6 -11
-14 -8 -12 5 -12 11 0 41 10 23 13 49 9 74 -5 31 -3 40 9 45 9 3 16 10 16 15
0 17 -30 22 -47 8 -9 -8 -28 -14 -42 -14 -37 0 -41 -37 -7 -53 29 -13 45 -57
27 -75 -9 -9 -17 -8 -32 1 -16 10 -24 10 -35 1 -16 -13 -19 -39 -4 -39 22 0 8
-36 -20 -52 -35 -20 -42 -58 -10 -58 11 0 29 9 40 20 25 25 47 26 55 1 10 -32
-53 -160 -82 -167 -32 -8 -39 1 -26 36 12 32 8 40 -19 40 -34 0 -52 86 -23
110 8 7 15 23 15 35 0 12 -7 28 -15 35 -8 7 -15 28 -15 46 0 34 -6 39 -34 28
-21 -8 -20 -26 4 -56 19 -24 19 -26 1 -42 -20 -18 -36 -22 -26 -6 3 6 1 10 -5
10 -7 0 -10 -6 -7 -14 7 -17 -11 -36 -35 -36 -17 0 -17 2 -3 30 17 34 19 50 5
50 -5 0 -15 -21 -21 -46 -8 -31 -18 -48 -31 -52 -10 -2 -18 -8 -18 -12 0 -5
-3 -15 -6 -24 -4 -10 -1 -16 9 -16 26 0 31 -21 9 -42 -15 -16 -24 -18 -39 -10
-18 10 -19 17 -12 69 5 33 5 67 0 78 -5 11 -12 28 -15 38 -3 9 -13 17 -21 17
-13 0 -15 -6 -10 -29 5 -24 2 -29 -17 -35 -13 -3 -33 -6 -45 -6 -16 0 -24 -8
-29 -27 -12 -56 -12 -56 -60 -50 -55 6 -66 19 -60 70 5 41 -19 97 -41 97 -18
0 -16 27 2 34 9 3 15 18 15 34 0 34 22 57 45 48 12 -4 14 -10 5 -25 -11 -21 3
-40 15 -21 4 6 18 15 31 20 13 5 24 17 24 26 0 9 9 28 19 43 11 15 23 40 26
57 13 55 14 57 30 44 8 -7 15 -23 15 -35 0 -22 3 -23 55 -20 42 2 57 -1 64
-13 5 -10 17 -13 35 -10 14 3 26 2 26 -2 0 -4 18 -8 39 -8 33 -1 40 3 45 24 7
25 20 31 31 14 3 -5 17 -10 31 -10 17 0 24 6 24 19 0 23 -25 31 -63 18 -15 -5
-31 -7 -34 -3 -8 8 17 36 33 36 7 0 17 6 21 14 11 19 167 59 227 57 47 -1 48
0 42 24 -7 28 12 35 20 8z m-1809 -102 c13 -19 23 -45 23 -58 0 -24 0 -24 -41
9 -33 27 -42 30 -49 18 -6 -8 -10 -19 -10 -24 0 -18 42 -75 60 -81 40 -13 35
-59 -8 -69 -45 -9 -58 -22 -42 -41 10 -12 10 -21 1 -41 -14 -33 -15 -32 12
-36 17 -2 23 -11 25 -35 4 -43 -16 -44 -55 -3 -15 17 -33 30 -40 30 -6 0 -18
9 -26 20 -17 25 -28 16 -21 -19 4 -19 0 -29 -16 -39 -30 -18 -36 6 -13 55 33
68 29 80 -69 199 -43 51 -44 56 -23 74 20 16 55 -6 85 -54 28 -46 50 -47 50
-3 0 26 6 37 25 47 14 7 25 22 25 32 0 10 6 18 13 18 7 0 18 9 25 21 18 28 42
21 69 -20z m-5317 -82 c0 -27 22 -59 41 -59 5 0 9 -10 9 -22 0 -13 7 -32 15
-42 10 -13 12 -23 5 -32 -7 -8 -7 -26 1 -55 16 -60 17 -121 2 -126 -7 -3 -15
8 -18 24 -4 15 -17 61 -30 101 -12 39 -19 72 -14 72 5 0 9 5 9 11 0 8 -4 8
-15 -1 -24 -20 -35 -2 -33 53 1 29 -2 67 -6 84 -4 18 -4 38 0 44 10 18 34 -19
34 -52z m-398 -12 c31 -24 44 -41 45 -62 2 -17 7 -52 13 -80 5 -27 12 -72 15
-99 5 -47 4 -48 -20 -42 -23 6 -27 2 -24 -21 0 -3 -6 -10 -15 -15 -9 -5 -14
-13 -11 -19 4 -5 2 -9 -3 -9 -5 0 -12 -9 -15 -20 -7 -28 -45 -26 -82 4 -30 24
-30 24 -11 45 18 20 18 21 1 21 -10 0 -27 7 -37 17 -17 15 -18 15 -18 -8 0
-14 6 -31 12 -37 10 -10 10 -15 -2 -22 -27 -18 -37 -10 -79 56 -51 81 -57 130
-10 88 23 -20 85 -9 100 18 14 26 11 27 -51 37 -60 10 -72 23 -64 71 7 38 44
77 84 85 14 3 39 10 55 14 53 15 73 12 117 -22z m5465 -85 c9 -16 5 -26 -24
-63 -44 -55 -61 -65 -86 -50 -15 10 -22 9 -36 -3 -22 -20 -26 -20 -45 -1 -8 8
-30 17 -48 19 -27 3 -34 8 -38 32 -8 39 0 74 15 74 7 0 23 -11 36 -24 l24 -25
22 21 c26 25 43 16 25 -12 -16 -26 -15 -27 8 -40 17 -9 28 -4 73 40 28 27 54
50 57 50 3 0 10 -8 17 -18z m-319 -88 c12 -8 22 -18 22 -23 0 -4 25 -13 55
-20 30 -7 55 -17 55 -22 0 -14 -38 -27 -101 -34 -60 -7 -69 -16 -69 -73 0 -19
-4 -22 -20 -17 -16 5 -20 2 -20 -19 0 -14 -4 -26 -8 -26 -10 0 -32 81 -32 115
0 36 19 31 27 -7 l7 -33 6 35 c4 19 3 43 -2 52 -4 9 -8 35 -8 58 l0 42 33 -7
c17 -4 42 -13 55 -21z m-7407 -34 c22 -30 53 -201 54 -290 0 -58 -2 -65 -20
-65 -32 -1 -65 -15 -65 -29 0 -7 7 -21 15 -32 16 -21 19 -43 7 -61 -12 -19
-79 3 -98 31 -10 16 -21 22 -34 19 -11 -3 -36 2 -56 12 -35 16 -35 17 -15 34
16 14 21 30 21 65 0 39 3 46 19 46 11 0 23 -9 26 -21 14 -42 115 -80 115 -43
0 9 14 29 31 45 44 41 36 65 -21 61 -118 -6 -156 -10 -173 -17 -10 -4 -34 -1
-56 7 -21 8 -52 13 -69 10 -33 -4 -37 2 -32 51 1 10 -6 29 -14 42 -34 51 -13
100 47 109 18 3 50 8 72 12 22 3 67 9 100 13 33 4 69 12 80 19 27 16 45 11 66
-18z m6319 -40 c6 10 15 6 34 -13 19 -20 26 -36 26 -67 0 -22 5 -40 10 -40 16
0 12 -30 -5 -36 -11 -5 -12 -10 -4 -26 6 -11 8 -25 6 -32 -3 -7 -2 -17 1 -23
12 -18 86 -53 113 -53 38 0 121 -72 155 -133 24 -43 29 -64 29 -119 0 -44 -5
-71 -14 -80 -11 -11 -13 -9 -8 10 6 24 -2 29 -20 11 -8 -8 -16 -4 -29 16 -13
20 -24 25 -41 22 -12 -2 -28 2 -34 9 -6 8 -23 14 -38 14 -17 0 -30 7 -36 22
-6 12 -24 26 -42 30 l-32 8 -5 88 c-9 137 -9 140 -26 134 -8 -3 -12 -2 -8 2 3
4 -2 16 -13 27 -18 18 -18 21 -2 45 16 25 16 27 -1 36 -14 8 -16 17 -11 45 4
24 3 33 -4 28 -6 -3 -11 -15 -11 -25 0 -10 -5 -22 -12 -26 -8 -5 -9 0 -3 17 5
13 9 45 9 72 1 26 3 42 5 36 2 -8 6 -8 11 1z m-5405 -36 c8 -12 21 -15 39 -12
26 5 28 4 22 -22 -3 -20 0 -33 14 -45 12 -11 17 -27 15 -51 -2 -33 0 -35 21
-30 19 5 25 2 30 -20 4 -16 1 -44 -8 -67 l-14 -41 49 -33 c27 -18 64 -40 83
-49 18 -9 36 -24 39 -34 4 -11 20 -20 44 -24 27 -4 48 -16 69 -40 25 -29 30
-43 30 -88 1 -29 6 -54 11 -56 22 -7 1 -122 -25 -141 -25 -17 -56 -194 -58
-321 -1 -110 -17 -154 -50 -144 -12 4 -22 7 -23 8 -7 5 17 227 25 242 11 18
11 17 12 -6 0 -17 3 -21 11 -13 14 14 2 116 -13 107 -13 -8 0 83 18 120 8 16
14 52 13 80 l-1 51 -13 -30 c-18 -39 -18 -22 -1 35 7 25 11 61 9 81 -4 29 -11
39 -39 51 -19 9 -34 11 -34 6 0 -5 -6 -6 -12 -1 -7 4 -23 6 -35 5 -12 -2 -32
2 -45 9 -13 8 -27 12 -32 11 -15 -5 -34 32 -42 78 -3 25 -9 39 -11 32 -4 -10
-9 -8 -19 5 -11 15 -15 15 -22 5 -8 -11 -14 -12 -33 -1 -13 6 -29 15 -35 18
-7 3 -26 16 -43 29 -17 13 -31 19 -31 13 0 -5 12 -16 28 -23 15 -7 27 -20 27
-28 0 -12 -11 -14 -50 -11 -27 1 -51 7 -53 12 -2 5 -11 9 -19 9 -8 0 -35 21
-59 46 -35 36 -44 41 -44 26 0 -11 6 -25 14 -31 13 -11 15 -37 7 -93 -2 -17
-22 -6 -33 17 -8 18 -19 25 -40 25 -27 0 -29 3 -28 38 1 20 -2 64 -5 97 -7 59
-6 60 21 73 34 15 61 16 69 2 3 -5 16 -10 27 -10 12 0 19 3 15 6 -8 8 70 71
106 85 27 11 36 32 17 44 -8 5 -8 11 0 20 14 17 67 4 85 -21z m2329 -15 c5 -4
-13 -20 -39 -36 -26 -15 -69 -42 -94 -59 -81 -53 -126 -79 -115 -64 6 8 14 27
18 42 6 26 5 26 -25 18 -43 -13 -34 7 24 50 25 19 44 36 42 39 -7 6 -85 -20
-113 -38 -19 -12 -25 -12 -32 -1 -4 7 -13 9 -19 6 -6 -4 -11 -2 -11 4 0 7 -8
9 -22 5 -22 -7 -22 -6 -6 11 27 28 137 43 268 37 63 -3 119 -9 124 -14z m1602
-86 c42 -14 98 -48 174 -108 78 -61 151 -127 146 -132 -4 -4 -121 70 -153 97
-15 12 -16 8 -13 -59 2 -43 4 -60 16 -113 5 -26 4 -27 -25 -18 -20 5 -31 5
-31 -1 0 -6 -4 -8 -9 -4 -5 3 -11 -5 -13 -17 -4 -23 -5 -22 -16 4 -6 14 -16
29 -21 33 -6 3 -12 32 -12 63 -1 56 -1 56 -9 17 -4 -22 -6 -43 -3 -47 2 -5 -1
-8 -6 -8 -7 0 -11 25 -11 63 0 54 -17 148 -36 197 -5 12 -8 11 -14 -5 -7 -17
-9 -17 -9 -2 -1 16 -7 18 -53 21 -17 1 -68 51 -68 66 0 6 48 -7 166 -47z
m1024 16 c0 -11 7 -34 16 -51 11 -21 14 -45 11 -72 -3 -22 -1 -48 5 -59 13
-26 2 -34 -20 -14 -23 21 -52 22 -52 2 0 -8 9 -15 20 -15 13 0 20 -7 20 -18 0
-24 35 -58 45 -42 10 17 25 1 25 -28 0 -24 1 -25 14 -7 12 16 16 17 30 6 17
-14 20 -40 10 -78 -9 -32 -20 -28 -29 10 -7 28 -9 29 -12 10 -3 -13 -8 -23
-13 -23 -5 0 -10 10 -12 23 -3 19 -6 17 -20 -15 -22 -49 -43 -51 -35 -4 4 28
3 34 -9 29 -17 -6 -19 19 -3 49 15 29 4 33 -21 8 -15 -15 -31 -20 -53 -18 -29
3 -33 7 -41 46 -7 31 -13 41 -23 37 -9 -3 -17 2 -20 14 -3 11 -11 22 -19 25
-22 8 -16 33 13 56 23 18 36 20 70 15 43 -6 49 -2 37 29 -5 12 -10 14 -19 6
-14 -11 -36 -18 -98 -27 -33 -5 -38 -9 -33 -27 3 -12 6 -40 6 -62 0 -37 3 -43
26 -48 25 -7 25 -8 8 -21 -14 -10 -21 -10 -27 -2 -5 9 -11 7 -21 -5 -7 -10
-25 -18 -40 -18 -15 0 -29 -7 -32 -15 -8 -19 -28 -19 -48 1 -18 18 -36 11 -36
-15 0 -10 -3 -20 -6 -23 -11 -12 -42 5 -53 29 -16 35 -23 24 -11 -16 9 -31 8
-32 -18 -30 -15 1 -40 -3 -55 -10 -16 -6 -33 -11 -38 -11 -5 0 -9 -4 -9 -10 0
-23 -19 -7 -41 34 -13 25 -33 47 -44 50 -16 4 -21 13 -19 33 3 58 3 57 19 43
13 -11 19 -9 33 11 27 39 75 79 94 79 10 0 18 4 18 9 0 21 33 39 82 46 29 3
74 11 100 17 31 8 54 8 69 2 30 -14 203 44 225 74 17 25 34 21 34 -9z m3400
-72 c11 -10 20 -27 20 -38 0 -11 5 -17 10 -14 6 3 10 -1 10 -9 0 -8 -5 -18
-10 -21 -17 -10 -2 -24 20 -18 18 5 20 0 20 -40 0 -36 5 -48 23 -60 13 -8 37
-30 53 -47 16 -17 39 -35 51 -40 29 -12 69 -67 82 -114 14 -51 5 -59 -22 -21
-12 17 -31 39 -43 50 -11 11 -23 28 -27 37 -3 9 -17 24 -32 34 -20 13 -28 14
-40 4 -14 -11 -19 -7 -16 13 0 4 -8 7 -20 7 -29 0 -59 18 -59 35 0 20 -38 38
-66 31 -21 -6 -36 -1 -84 25 -8 5 -32 18 -52 29 -39 21 -50 40 -23 40 8 0 15
5 15 10 0 18 -32 24 -74 12 -47 -12 -63 -3 -47 26 9 17 18 19 50 15 23 -3 41
-1 45 6 12 19 22 12 36 -24 8 -19 19 -35 25 -35 6 0 22 -11 34 -24 35 -37 121
-44 121 -10 0 10 -7 13 -24 8 -28 -7 -43 11 -27 30 7 9 9 38 6 80 -7 71 2 106
17 65 5 -13 18 -32 28 -42z m-4736 -39 c9 -17 16 -46 16 -64 0 -33 40 -84 66
-84 7 0 22 -8 35 -19 20 -16 21 -21 10 -34 -7 -9 -10 -25 -6 -36 3 -11 2 -28
-3 -37 -7 -13 -11 -6 -16 31 l-8 47 -51 -7 c-29 -4 -62 -8 -74 -9 -12 0 -25
-4 -29 -8 -4 -5 -11 -8 -16 -8 -17 0 -7 23 27 63 l35 41 -6 78 c-4 43 -4 78
-1 78 3 0 13 -14 21 -32z m1747 12 c6 0 8 -4 5 -9 -3 -5 8 -14 25 -21 36 -16
57 -48 35 -56 -8 -3 -25 0 -38 7 -21 11 -21 9 5 -18 28 -30 34 -52 18 -68 -5
-6 -11 -23 -13 -40 -3 -29 -5 -30 -47 -28 -32 2 -51 9 -72 29 -34 33 -37 23
-9 -31 13 -25 16 -41 10 -43 -17 -6 -44 24 -59 64 -12 33 -12 39 4 50 11 9 15
19 10 34 -5 16 0 30 22 52 24 25 33 28 61 23 23 -4 32 -3 27 4 -3 6 -13 11
-21 11 -8 0 -14 8 -14 18 0 24 10 34 28 27 7 -3 18 -5 23 -5z m-4113 -203 c30
1 32 -1 32 -30 0 -47 -28 -167 -42 -184 -11 -13 -14 -12 -25 13 -7 17 -12 22
-13 12 0 -9 -4 -19 -9 -22 -5 -3 -9 27 -8 67 0 39 -3 92 -8 116 -7 42 -7 43
16 35 13 -5 39 -8 57 -7z m4800 -143 c2 -24 -3 -36 -22 -52 -15 -11 -29 -34
-32 -51 -4 -17 -10 -34 -15 -37 -5 -3 0 -17 10 -32 11 -15 21 -48 24 -74 4
-44 2 -48 -30 -71 -20 -14 -40 -36 -47 -49 -13 -27 -45 -36 -57 -16 -12 18
-11 111 1 143 7 19 17 26 33 25 38 -3 47 -1 47 14 0 8 6 16 13 19 6 2 8 8 4
13 -5 5 -14 2 -20 -6 -17 -22 -44 -13 -51 16 -7 26 12 54 36 54 10 0 10 2 1 8
-9 6 -10 18 -4 42 5 19 12 48 15 63 6 26 10 28 49 25 39 -3 42 -5 45 -34z
m-552 -325 c10 -20 14 -43 10 -63 -4 -17 -6 -48 -6 -68 1 -21 -4 -38 -10 -38
-16 0 -12 -27 5 -34 8 -3 14 -15 12 -28 -1 -16 3 -23 18 -23 25 0 46 -52 26
-65 -8 -4 -11 -15 -8 -23 4 -10 -1 -18 -13 -22 -25 -8 -40 1 -40 24 0 14 -10
21 -35 25 -41 8 -60 41 -52 93 5 26 2 33 -14 38 -10 4 -19 10 -19 15 0 13 26
19 41 9 21 -13 28 -11 24 9 -3 9 -9 37 -15 62 -8 32 -8 46 0 48 6 2 17 19 25
38 17 42 30 43 51 3z m383 -86 c-4 -22 2 -33 14 -27 10 6 10 4 0 -7 -7 -7 -13
-23 -13 -36 0 -13 -5 -23 -11 -23 -5 0 -7 -5 -4 -10 4 -6 10 -8 15 -5 4 3 11
-6 14 -20 7 -26 20 -32 31 -15 5 8 12 7 22 -1 12 -10 16 -10 23 1 14 22 82
-49 75 -77 -4 -16 -1 -23 8 -23 22 0 45 32 52 73 4 21 13 37 21 37 8 0 14 4
14 9 0 5 12 10 28 10 15 0 36 2 47 3 18 3 20 -2 17 -37 -2 -24 -12 -50 -26
-65 -41 -45 -88 -120 -113 -183 -27 -67 -46 -91 -80 -102 -21 -6 -23 -3 -23
34 0 23 -3 41 -7 41 -17 -1 -65 -97 -75 -149 -12 -66 -31 -91 -70 -91 -15 0
-29 -6 -29 -12 -4 -37 -18 -68 -31 -68 -6 0 -8 10 -5 23 3 12 9 58 12 102 3
44 11 116 17 160 5 44 11 141 13 215 2 137 5 160 32 218 13 28 35 45 32 25z
m-568 -262 c12 -2 17 -56 7 -69 -8 -9 -8 -20 0 -37 18 -38 27 -30 28 25 1 28
5 54 9 58 10 11 36 -30 26 -42 -4 -6 -11 -24 -15 -39 -6 -27 -5 -28 21 -25 36
4 43 -26 14 -53 -12 -11 -21 -23 -21 -27 1 -11 34 -46 55 -58 11 -6 21 -23 22
-40 3 -46 13 -78 30 -96 36 -40 -25 -45 -126 -9 -45 16 -46 18 -52 66 -4 28
-2 54 2 60 13 13 11 59 -2 72 -6 6 -18 9 -25 6 -8 -3 -14 -1 -15 3 0 5 -1 54
-2 110 -2 107 -3 105 44 95z m169 -86 c16 -8 35 -12 44 -9 24 9 47 -39 53
-113 4 -52 2 -71 -9 -80 -11 -10 -20 -5 -44 23 -17 19 -29 34 -26 34 3 0 1 5
-6 12 -7 7 -12 24 -12 38 0 19 -8 30 -25 38 -24 11 -35 49 -18 65 9 9 10 9 43
-8z m271 -47 c23 -28 26 -120 5 -160 -8 -16 -17 -41 -19 -57 -7 -41 -25 -71
-44 -71 -9 0 -25 -7 -35 -17 -17 -15 -18 -15 -18 0 0 10 4 17 8 17 4 0 8 51 9
113 0 61 6 131 12 155 10 35 16 42 37 42 15 0 34 -10 45 -22z m788 -430 c47
-23 89 -47 94 -53 9 -12 0 -67 -13 -75 -5 -3 -39 -7 -74 -8 -60 -2 -67 0 -100
29 -41 36 -46 59 -13 59 l22 1 -22 18 c-22 19 -30 51 -16 64 13 14 38 6 122
-35z m-531 -14 c-1 -20 4 -40 15 -52 9 -10 17 -30 17 -45 0 -24 4 -26 55 -32
60 -8 80 -23 70 -55 -7 -23 -38 -26 -75 -5 -17 9 -29 10 -37 3 -13 -10 -28 2
-85 71 -37 43 -39 114 -6 141 31 25 50 15 46 -26z m510 -1056 c22 -22 13 -48
-34 -95 -27 -28 -44 -53 -41 -63 2 -9 -2 -25 -9 -34 -28 -40 -87 20 -64 65 14
24 3 24 -38 -1 -18 -11 -40 -20 -50 -20 -10 0 -24 -6 -30 -12 -10 -10 -15 -10
-22 2 -7 11 -4 16 12 20 13 3 25 16 28 30 6 22 11 25 56 25 27 0 63 6 79 13
17 7 36 15 44 18 11 3 12 7 3 16 -18 18 -15 28 11 38 31 12 41 12 55 -2z
m1987 -2 c37 -5 86 -24 65 -26 -9 -1 -6 -5 8 -10 28 -12 29 -43 1 -71 -16 -16
-23 -18 -29 -9 -6 10 -15 10 -45 0 -33 -11 -39 -10 -48 5 -8 14 -11 15 -18 4
-8 -11 -12 -10 -24 5 -16 21 -18 40 -6 70 7 18 9 17 26 -11 10 -17 24 -29 31
-26 9 3 5 12 -13 29 -28 26 -25 59 5 50 9 -3 31 -8 47 -10z"/>
<path d="M4879 3785 c-4 -79 12 -108 75 -139 49 -24 120 -38 88 -17 -10 6 -9
10 7 14 15 3 21 13 21 31 0 21 6 28 29 32 16 4 39 15 51 26 l22 20 -24 12
c-15 8 -61 11 -128 9 -99 -3 -106 -2 -122 19 l-18 23 -1 -30z"/>
<path d="M1677 3332 c-10 -10 -17 -28 -17 -40 0 -11 -4 -24 -10 -27 -18 -11
-11 -22 32 -51 144 -100 162 -105 172 -41 9 54 10 52 -17 52 -34 1 -77 26 -77
46 0 10 -8 24 -18 31 -10 7 -21 21 -25 31 -8 22 -20 22 -40 -1z"/>
<path d="M4988 5965 c4 -31 7 -35 33 -35 24 0 33 -7 46 -35 12 -25 23 -35 39
-35 13 0 27 -6 31 -13 4 -8 23 -24 41 -37 17 -13 32 -30 32 -37 0 -24 18 -14
40 23 20 32 24 34 39 20 16 -15 20 -14 41 9 l23 24 -24 20 c-27 23 -57 19 -78
-11 -9 -14 -16 -17 -24 -9 -6 6 -24 11 -39 11 -40 0 -36 30 10 72 78 71 81 68
-75 68 l-139 0 4 -35z"/>
<path d="M10130 5729 c0 -19 10 -46 25 -65 23 -30 35 -94 18 -94 -5 0 -14 -4
-21 -9 -11 -7 -12 -12 -1 -29 18 -28 -2 -72 -32 -72 -19 0 -20 -2 -8 -16 10
-12 22 -14 54 -9 22 4 52 7 66 8 21 0 29 7 37 35 9 30 8 38 -11 63 -27 37 -15
50 49 54 27 2 50 8 52 14 4 11 -45 121 -53 121 -3 0 -15 -6 -26 -12 -17 -11
-23 -10 -39 10 -12 15 -33 24 -64 28 l-46 5 0 -32z"/>
<path d="M9824 5544 c-11 -45 7 -77 48 -87 27 -7 40 -17 52 -42 17 -36 42 -50
70 -39 12 5 16 0 16 -17 0 -41 19 -55 68 -50 20 2 13 34 -17 69 -24 28 -27 38
-21 71 4 21 17 52 28 69 27 37 27 38 0 46 -14 3 -41 -3 -66 -16 -32 -15 -47
-17 -54 -10 -8 8 -14 6 -22 -10 -19 -36 -43 -46 -61 -23 -8 11 -14 30 -11 43
5 32 -22 28 -30 -4z"/>
</g>
</svg>
