<?xml version="1.0" standalone="no"?>
<!DOCTYPE svg PUBLIC "-//W3C//DTD SVG 20010904//EN"
 "http://www.w3.org/TR/2001/REC-SVG-20010904/DTD/svg10.dtd">
<svg version="1.0" xmlns="http://www.w3.org/2000/svg"
 width="500.000000pt" height="600.000000pt" viewBox="0 0 500.000000 600.000000"
 preserveAspectRatio="xMidYMid meet">
<metadata>
Created by potrace 1.15, written by Peter Selinger 2001-2017
</metadata>
<g transform="translate(0.000000,600.000000) scale(0.100000,-0.100000)"
fill="#000000" stroke="none">
<path d="M973 4130 c9 -6 25 -10 35 -9 27 4 112 -11 175 -31 55 -18 136 -67
137 -82 0 -12 -14 -9 -30 5 -12 10 -12 9 -1 -5 8 -11 9 -18 3 -18 -6 0 -14 4
-17 10 -3 5 -16 15 -28 21 -28 13 32 -41 93 -83 25 -18 51 -38 58 -45 7 -7 17
-13 22 -13 5 0 7 -6 4 -14 -5 -13 43 -53 59 -48 5 1 5 -2 2 -8 -5 -8 -13 -7
-28 2 -12 8 -32 13 -45 12 -16 -1 -33 11 -53 36 -17 21 -46 46 -65 56 -19 10
-34 22 -34 27 0 4 -4 6 -8 3 -5 -3 -19 8 -31 25 -13 17 -25 28 -27 26 -7 -6
46 -83 53 -77 3 3 11 -12 17 -32 7 -20 23 -53 35 -74 22 -36 22 -36 1 -31 -21
5 -28 -7 -10 -18 6 -3 10 -14 9 -23 0 -13 -2 -14 -6 -3 -3 8 -16 24 -28 35
-12 12 -37 56 -55 98 -17 42 -43 87 -56 99 -32 30 -30 43 4 23 l27 -16 -24 21
c-23 21 -36 24 -81 22 -18 -1 -21 1 -12 7 11 7 6 12 -19 21 -40 14 -66 14 -74
1 -3 -6 1 -7 9 -4 9 3 16 2 16 -4 0 -5 -9 -12 -21 -15 -12 -3 -18 -10 -14 -16
3 -6 11 -8 17 -5 7 4 8 2 4 -5 -4 -6 -11 -9 -16 -6 -5 3 -14 -3 -20 -12 -9
-15 -10 -13 -6 12 5 29 5 29 -10 -5 -28 -62 -1 -71 161 -58 11 1 34 -1 51 -5
24 -6 31 -13 27 -26 -3 -11 3 -24 14 -32 18 -14 23 -29 25 -78 0 -14 8 -41 16
-60 9 -20 16 -39 16 -43 1 -5 6 -8 11 -9 6 -1 24 -21 41 -45 17 -24 35 -40 39
-36 5 4 5 2 2 -5 -10 -16 25 -74 41 -68 8 3 10 0 5 -8 -4 -6 -9 -21 -10 -32
-2 -17 -1 -17 11 4 12 22 59 50 96 58 76 16 76 16 103 -17 39 -46 37 -100 -8
-184 -19 -37 -35 -79 -34 -94 l1 -27 10 30 c6 17 24 50 41 73 28 43 35 68 76
289 7 38 9 89 4 130 -4 37 -6 71 -6 74 1 3 -5 6 -13 6 -7 0 -14 -7 -14 -16 0
-26 -49 43 -90 127 -21 43 -54 92 -76 112 l-38 35 40 -50 c41 -51 81 -125 89
-164 5 -25 5 -25 -31 -6 -34 18 -43 12 -20 -14 10 -11 13 -21 7 -25 -5 -4 -17
4 -26 16 -12 17 -18 20 -24 10 -6 -10 -11 -9 -22 4 -9 12 -10 15 -1 10 23 -14
35 5 12 21 -11 8 -19 20 -18 26 3 18 -21 57 -35 57 -18 0 -147 107 -139 116 4
4 1 4 -5 0 -7 -4 -13 -3 -13 1 0 19 -99 43 -195 49 -76 4 -96 2 -82 -6z"/>
<path d="M3783 4007 c-25 -9 -37 -22 -56 -65 -23 -49 -26 -52 -36 -34 -7 13
-7 30 -1 53 13 44 13 47 -4 24 -34 -50 -26 -148 15 -182 11 -9 92 -27 209 -47
27 -5 106 -45 120 -60 7 -9 10 -26 7 -38 -4 -12 -1 -28 5 -35 7 -9 7 -13 0
-13 -7 0 -9 -8 -5 -17 6 -16 5 -16 -10 -5 -14 12 -15 10 -5 -20 6 -18 16 -44
21 -58 6 -14 12 -34 13 -44 1 -16 89 -108 96 -101 2 2 3 -13 4 -32 1 -42 29
-70 51 -52 9 8 13 8 13 1 0 -6 9 -13 20 -16 11 -3 29 -9 40 -12 14 -4 20 -1
20 10 0 9 -4 16 -10 16 -24 0 16 47 58 68 61 29 77 28 113 -7 41 -42 39 -92
-6 -180 -39 -74 -69 -204 -55 -232 5 -9 21 -24 35 -33 17 -12 25 -25 25 -46 0
-28 2 -30 28 -24 15 4 35 11 44 16 20 10 33 51 22 69 -4 7 -3 9 4 5 6 -3 13 3
17 14 3 11 11 20 16 20 5 0 9 15 9 34 0 22 9 45 25 64 14 16 27 46 31 66 3 20
14 56 24 79 11 23 20 53 20 67 0 14 7 35 15 47 10 14 16 54 19 112 4 80 1 101
-21 164 -14 40 -34 84 -44 99 -11 14 -19 30 -19 36 0 32 -33 68 -77 85 -51 18
-90 43 -81 52 2 3 19 -2 36 -11 18 -8 37 -12 43 -8 8 4 9 3 5 -4 -4 -7 -1 -12
8 -12 9 0 16 -5 16 -12 0 -6 3 -8 6 -5 12 11 -27 59 -42 53 -8 -3 -30 1 -49 8
-24 11 -44 12 -66 6 -23 -7 -35 -6 -45 4 -7 8 -32 17 -55 21 -24 4 -37 10 -30
15 13 7 104 -10 117 -23 15 -14 26 -7 13 9 -12 15 -11 16 10 9 14 -4 38 -16
55 -26 37 -23 47 -24 40 -5 -3 8 -15 17 -27 20 -12 3 -31 12 -42 21 -11 9 -14
13 -6 9 9 -5 12 -3 7 5 -12 18 -106 63 -124 58 -11 -2 -2 -10 26 -21 23 -10
42 -24 42 -32 0 -8 7 -11 18 -8 15 5 15 4 -1 -6 -21 -14 -48 -6 -45 12 2 9
-10 12 -40 11 -23 -1 -41 1 -38 5 2 4 -10 8 -27 9 -26 1 -28 0 -12 -7 17 -7
16 -9 -10 -9 -36 -1 -73 -20 -40 -21 15 0 17 -2 6 -9 -7 -5 -21 -8 -29 -7 -28
5 -24 23 8 37 38 18 38 36 0 44 -16 4 -30 13 -30 21 0 17 2 17 -50 -1 -54 -19
-58 -19 -34 1 19 15 19 16 -1 9 -49 -18 -218 -21 -223 -5 -4 12 -57 11 -99 -3z"/>
<path d="M1146 3011 c-19 -21 -68 -34 -77 -20 -3 5 -20 2 -40 -8 -19 -9 -41
-18 -49 -19 -8 -2 -24 -5 -35 -8 -11 -2 -28 -5 -38 -5 -10 -1 -17 -7 -14 -13
2 -7 12 -12 21 -11 11 0 15 -4 12 -13 -3 -8 0 -14 6 -14 6 0 -1 -9 -16 -21
-19 -15 -34 -19 -55 -14 -16 3 -32 2 -35 -3 -3 -5 6 -10 19 -11 14 -1 31 -2
38 -2 6 -1 19 2 28 5 14 6 15 3 5 -28 -8 -26 -18 -37 -37 -41 -33 -7 -161 14
-154 25 3 5 1 11 -4 14 -5 4 -12 2 -16 -4 -3 -5 -22 -10 -41 -10 -21 0 -33 -4
-29 -10 3 -5 -1 -10 -10 -10 -9 0 -14 -4 -11 -9 3 -5 -17 -18 -46 -30 -55 -23
-62 -38 -10 -20 40 14 55 9 57 -19 1 -14 -6 -24 -18 -28 -16 -5 -17 -8 -6 -15
19 -12 11 -11 -45 6 -27 8 -59 15 -70 14 -12 0 -1 -6 24 -13 55 -15 114 -45
106 -53 -3 -4 -16 -1 -29 5 -50 25 -222 31 -260 10 -22 -12 -28 -14 -47 -17
-5 0 -20 -12 -33 -25 -14 -14 -27 -23 -30 -20 -2 3 -7 -3 -11 -12 -4 -12 -2
-15 9 -11 8 4 17 2 20 -4 4 -5 3 -9 -2 -8 -23 4 -35 -2 -29 -16 4 -10 -1 -15
-14 -15 -11 0 -20 -4 -20 -10 0 -5 6 -7 14 -4 21 8 201 -15 233 -30 16 -7 78
-33 138 -56 61 -24 113 -46 118 -50 4 -3 -6 -19 -22 -34 l-30 -28 -124 45
c-156 58 -233 71 -324 57 -68 -11 -92 -20 -57 -20 10 -1 -3 -10 -31 -20 -62
-25 -70 -25 -25 0 19 11 31 19 25 19 -16 0 -81 -38 -66 -39 11 0 11 -3 0 -17
-8 -9 -9 -14 -3 -11 5 4 34 16 63 28 44 17 52 18 48 5 -4 -8 -1 -15 5 -15 7 0
5 -7 -4 -17 -19 -22 -35 -72 -44 -138 -4 -27 -11 -61 -17 -75 -5 -14 -13 -61
-17 -105 -13 -141 -19 -181 -30 -209 -5 -15 -10 -29 -10 -31 0 -2 21 2 47 10
70 21 76 18 13 -8 l-55 -22 -1 -564 -1 -563 32 38 c30 36 37 74 13 74 -6 0 -7
-7 -4 -16 3 -8 2 -12 -4 -9 -6 3 -7 18 -3 33 5 23 4 25 -9 14 -13 -11 -15 -7
-14 28 0 22 2 40 4 40 1 0 16 -27 31 -60 l28 -59 29 30 c33 35 100 75 75 46
-15 -19 -1 -23 17 -5 7 7 12 8 12 2 0 -5 -15 -20 -33 -33 -30 -23 -133 -137
-150 -166 -4 -7 -3 -25 3 -39 5 -14 6 -26 1 -26 -5 0 -11 14 -15 32 -8 39 6
60 92 151 36 37 61 67 55 67 -12 0 -109 -101 -141 -147 -35 -49 -31 -123 10
-174 17 -21 36 -39 41 -39 5 0 3 8 -4 18 -13 15 -12 16 3 3 10 -7 16 -17 13
-21 -3 -5 8 -18 24 -29 41 -29 52 -26 16 5 -19 15 -22 21 -9 15 23 -11 42 -31
43 -46 1 -10 24 -24 178 -115 64 -37 73 -46 73 -71 0 -33 18 -44 124 -74 56
-17 58 -19 52 -46 l-5 -29 920 0 920 0 43 48 c175 192 227 253 258 303 9 15
30 37 45 49 32 23 71 95 129 233 42 101 43 157 4 209 -20 27 -21 34 -10 76 6
26 14 88 17 137 5 84 3 97 -30 195 -20 58 -45 128 -55 155 -35 88 -92 271 -92
293 0 12 -15 50 -32 84 -31 57 -33 71 -39 187 -6 136 -38 257 -99 386 -16 33
-31 68 -34 77 -10 34 -38 37 -113 13 -81 -25 -206 -92 -198 -105 8 -12 -53 6
-82 25 -13 9 -23 21 -21 27 6 17 209 137 258 153 29 9 37 14 22 14 -15 1 -22
6 -20 17 2 12 -8 17 -49 20 -28 2 -63 0 -77 -6 -20 -7 -24 -6 -19 5 3 8 0 15
-6 15 -6 0 -11 -6 -11 -14 0 -8 -3 -21 -6 -29 -4 -12 3 -15 33 -14 21 1 47 -3
57 -8 14 -6 17 -5 12 3 -5 8 -2 10 9 6 11 -5 -9 -21 -66 -54 -81 -47 -83 -48
-123 -35 -155 50 -239 68 -272 57 -45 -14 -97 2 -152 46 -40 32 -42 35 -28 56
8 12 16 33 19 47 4 23 4 23 6 2 0 -13 7 -23 14 -24 6 0 3 -4 -7 -8 -11 -4 -20
-15 -22 -24 -2 -17 49 -67 69 -67 6 0 2 7 -9 15 -19 15 -19 15 1 9 19 -5 19
-5 3 9 -10 8 -15 17 -11 20 3 4 2 7 -4 7 -8 0 -8 7 0 24 l12 25 74 -39 c41
-22 75 -38 75 -37 1 1 16 30 34 65 18 34 29 62 24 62 -5 0 -17 -18 -27 -40
-29 -64 -37 -67 -103 -34 -31 16 -57 36 -57 44 0 8 -9 16 -20 17 l-20 3 20 -9
c15 -7 16 -10 4 -10 -19 -1 -55 36 -46 46 4 3 7 2 7 -4 0 -6 11 -10 24 -10 29
0 41 31 19 52 -8 8 -11 19 -8 25 3 6 -1 13 -9 16 -9 3 -14 9 -11 13 2 4 6 20
9 35 5 27 4 27 -13 12 -10 -9 -21 -16 -26 -16 -5 0 1 9 14 21 28 27 13 49 -34
49 -26 0 -34 5 -39 24 -6 25 -68 86 -87 86 -7 0 -8 -7 -4 -17 4 -10 9 -42 12
-71 5 -48 4 -54 -15 -59 -18 -4 -20 -12 -19 -66 3 -84 -12 -99 -109 -105 -69
-4 -181 6 -157 15 17 6 -35 54 -97 86 -64 34 -92 56 -84 68 3 5 -1 6 -9 3 -8
-3 -20 3 -28 12 -13 16 -11 17 30 10 24 -3 56 -13 72 -22 27 -13 31 -13 45 1
19 18 30 19 38 3 3 -7 3 -2 0 12 -4 14 -3 22 1 18 4 -4 17 -1 27 7 11 7 26 11
33 9 7 -3 16 -1 20 5 4 7 14 5 31 -5 28 -19 38 -15 28 10 -5 14 -9 15 -15 4
-7 -10 -9 -9 -9 4 0 11 -17 25 -46 37 -25 11 -43 25 -39 31 4 6 -12 10 -43 10
-35 0 -54 -5 -66 -19z m524 -442 c14 -11 49 -35 77 -54 l53 -34 44 19 c44 19
46 19 103 0 32 -10 85 -26 118 -35 55 -16 58 -18 40 -31 -22 -17 -13 -18 18
-3 19 9 18 7 -3 -10 -16 -12 -29 -16 -36 -10 -7 6 -19 -1 -35 -19 l-24 -27 28
24 c15 14 27 20 27 14 0 -6 -43 -45 -95 -87 -90 -72 -126 -96 -91 -60 9 8 14
19 11 24 -3 4 3 14 12 21 12 10 14 10 9 2 -4 -7 -3 -13 3 -13 5 0 9 9 8 20 -1
15 -6 18 -23 14 -17 -4 -24 0 -29 16 -5 16 -10 18 -20 10 -9 -8 -14 -6 -19 7
-6 15 -8 15 -16 3 -8 -13 -10 -13 -10 0 0 11 -9 16 -27 15 -29 -1 -62 24 -64
47 0 7 -4 4 -9 -7 -7 -16 -9 -11 -9 22 -1 32 -5 43 -20 48 -18 5 -39 36 -23
34 33 -5 32 5 -3 36 -42 37 -38 49 5 14z m-181 -231 c8 -13 39 -55 70 -95 l56
-72 108 -1 c59 0 107 -4 107 -8 0 -15 -36 -42 -45 -35 -4 5 -5 3 -2 -3 4 -7
-3 -22 -16 -35 -72 -77 -70 -74 -52 -110 33 -63 83 -209 74 -215 -5 -3 -14 8
-20 25 -6 17 -19 33 -29 36 -11 3 -17 11 -15 18 2 7 -7 26 -21 42 -18 21 -22
23 -15 8 6 -12 16 -25 21 -28 6 -3 10 -11 10 -17 0 -7 -6 -6 -17 2 -10 7 -1
-4 20 -24 50 -49 47 -57 -6 -13 -24 19 -67 49 -96 66 l-52 31 -97 -79 c-111
-91 -113 -90 -88 36 28 145 34 130 -74 200 -52 34 -96 67 -98 71 -1 5 47 13
107 16 124 9 113 -2 126 116 11 96 19 108 44 68z m986 -490 c54 -14 61 -21 68
-71 3 -23 20 -86 36 -140 17 -54 40 -139 52 -190 12 -51 30 -114 40 -141 18
-47 17 -72 -2 -60 -6 3 -17 -2 -25 -12 -13 -18 -14 -18 -8 1 3 11 11 30 17 42
15 32 3 39 -22 14 -21 -21 -47 -29 -36 -11 3 5 3 10 -2 10 -12 0 -12 64 1 73
6 5 -4 6 -23 3 -19 -4 -32 -3 -28 0 3 4 2 14 -3 24 -5 9 -11 29 -14 44 -11 61
-28 96 -46 96 -10 0 -21 -6 -23 -12 -3 -8 -6 -6 -6 5 -1 12 7 17 27 18 l27 1
-25 7 c-14 4 -30 17 -36 29 -6 12 -14 19 -18 15 -4 -4 -4 1 0 10 4 12 -1 25
-15 38 -11 11 -21 23 -22 27 -3 28 -9 44 -23 58 -9 8 -16 12 -16 7 0 -4 -7 0
-15 10 -7 11 -11 26 -8 35 4 10 2 13 -5 8 -6 -3 -13 -2 -17 4 -3 5 6 12 20 16
14 3 29 14 35 23 7 14 0 18 -53 28 l-62 12 95 -5 c52 -3 113 -10 135 -16z
m-2009 -60 c4 -6 3 -8 -4 -4 -19 11 -107 -14 -120 -35 -14 -22 -8 -39 14 -39
8 0 14 -4 14 -10 0 -5 -7 -10 -15 -10 -8 0 -15 -7 -15 -15 0 -8 -4 -15 -10
-15 -5 0 -10 -8 -10 -18 0 -10 -6 -27 -14 -37 -9 -12 -12 -32 -9 -52 3 -20 1
-33 -5 -33 -6 0 -10 -21 -10 -47 1 -78 -19 -164 -32 -143 -5 8 -10 1 -15 -18
-4 -20 -11 -29 -20 -26 -7 3 -16 0 -20 -6 -3 -6 -1 -9 6 -8 6 2 14 -3 17 -11
2 -8 0 -11 -6 -7 -6 3 -13 2 -17 -4 -3 -5 -11 -10 -16 -10 -6 0 -7 5 -4 10 3
6 2 10 -4 10 -6 0 -13 -16 -17 -35 -5 -26 -1 -43 17 -72 l22 -38 -26 24 c-14
12 -30 20 -36 17 -13 -8 -8 20 25 159 51 215 56 243 64 338 4 54 10 101 13
103 6 6 174 42 204 43 12 1 25 -4 29 -11z m1704 -370 c18 -46 42 -99 53 -118
27 -46 88 -111 99 -104 5 3 7 0 6 -8 -2 -9 8 -13 30 -13 17 0 32 -5 32 -11 0
-6 -16 -32 -35 -57 -39 -51 -41 -59 -22 -76 11 -8 19 -5 37 14 13 14 31 25 40
25 8 0 26 7 38 16 13 9 25 14 28 11 7 -6 -46 -47 -61 -47 -14 0 -48 -36 -65
-69 -14 -28 -11 -26 65 27 l50 36 -31 -35 c-17 -19 -40 -45 -50 -58 -11 -13
-27 -32 -36 -43 -10 -10 -16 -18 -13 -18 3 0 -3 -9 -13 -21 -12 -12 -21 -40
-24 -72 -3 -29 -13 -78 -22 -109 -20 -66 -26 -68 -112 -41 -34 10 -53 22 -53
32 0 9 -5 43 -10 76 -12 77 -12 260 -1 395 5 58 11 141 15 185 7 99 15 165 19
165 2 0 18 -37 36 -82z m-766 5 c4 -16 9 -53 23 -183 2 -19 6 -57 8 -85 2 -27
5 -50 5 -50 1 0 3 -9 5 -20 1 -11 5 -38 9 -60 3 -22 8 -62 11 -90 7 -67 16
-152 22 -195 2 -19 6 -64 8 -100 2 -36 4 -65 5 -65 1 0 3 -16 5 -35 2 -19 6
-45 9 -57 3 -13 1 -23 -3 -23 -18 0 -32 30 -36 76 -2 27 -4 49 -5 49 -1 0 -3
16 -5 35 -1 19 -5 58 -9 85 -4 28 -9 70 -11 95 -5 62 -14 135 -25 195 -8 45
-18 132 -25 225 -4 41 -14 125 -20 160 -5 29 3 60 15 60 5 0 11 -8 14 -17z
m-44 -198 c41 -359 79 -731 79 -765 -1 -32 -2 -33 -9 -10 -4 14 -8 46 -9 72
-1 52 -17 75 -19 27 -1 -39 -48 -91 -58 -65 -4 11 -13 15 -28 11 -15 -5 -17
-4 -7 3 8 6 9 12 3 16 -6 3 -13 2 -17 -4 -8 -13 -35 -13 -35 1 0 5 5 7 10 4 6
-3 10 -1 10 5 0 12 -36 5 -57 -12 -9 -7 -18 -6 -30 3 -15 13 -16 11 -11 -13
10 -56 -10 -16 -30 59 -29 106 -158 629 -166 674 l-6 36 87 40 c49 23 115 49
148 59 33 10 71 26 85 35 14 10 28 14 32 10 5 -4 17 -88 28 -186z m490 179
c14 -4 36 -14 49 -23 13 -8 31 -16 40 -18 9 -1 17 -7 19 -12 2 -6 8 -11 12
-11 5 0 21 -12 36 -27 l27 -27 -12 -195 c-7 -108 -16 -277 -22 -376 -5 -99
-12 -186 -14 -193 -4 -10 -17 -12 -45 -9 -22 2 -37 0 -34 -4 3 -5 1 -9 -5 -9
-5 0 -13 5 -16 10 -4 6 -11 8 -16 5 -5 -4 -9 -1 -9 4 0 6 6 11 13 11 9 0 9 2
0 8 -6 4 -13 38 -16 75 -6 116 -19 88 -15 -35 2 -65 1 -118 -3 -118 -3 0 -9
98 -13 218 -10 320 -26 683 -31 715 -5 30 -8 29 55 11z m-1400 -54 c0 -5 -7
-10 -15 -10 -17 0 -34 -30 -28 -48 4 -10 7 -10 17 2 6 8 27 17 46 21 30 7 33
6 22 -8 -8 -9 -9 -16 -3 -19 17 -5 -4 -29 -27 -31 -35 -2 -5 -27 34 -27 40 0
86 -19 77 -33 -3 -6 -1 -7 5 -3 10 6 82 -51 82 -66 0 -3 -7 -14 -16 -22 -14
-15 -12 -16 17 -16 23 0 44 10 68 33 33 30 34 30 11 3 -14 -16 -36 -40 -50
-52 -17 -16 -20 -23 -10 -24 8 0 37 21 64 48 46 43 47 40 6 -11 -8 -10 -31
-30 -50 -43 -28 -20 -31 -24 -15 -25 11 -1 23 -1 26 -1 4 1 5 -9 2 -21 -4 -18
-3 -19 6 -6 6 9 27 29 48 45 l38 29 -32 -42 c-18 -22 -33 -45 -33 -49 0 -5 4
-2 10 6 5 8 12 11 16 8 3 -4 -3 -19 -15 -34 -29 -37 -28 -62 1 -34 28 26 47
26 23 0 -20 -22 -23 -5 35 -195 15 -49 33 -109 40 -133 7 -23 11 -44 8 -47 -7
-7 -19 27 -54 143 -32 108 -44 118 -15 12 35 -127 34 -118 20 -96 -13 21 -59
161 -60 185 0 9 -3 11 -5 4 -7 -16 34 -173 52 -201 9 -13 13 -26 10 -29 -11
-11 -46 30 -41 47 6 20 -47 62 -68 54 -18 -7 -117 76 -112 93 4 13 -43 43 -68
43 -7 0 -37 7 -65 15 -76 23 -202 148 -202 201 0 12 20 57 45 100 25 44 45 85
45 93 0 8 14 36 30 63 17 26 30 54 30 61 0 8 3 17 7 20 10 11 43 8 43 -3z
m2338 -450 c23 -10 42 -21 42 -24 0 -3 -6 -3 -12 -1 -19 7 -33 -6 -46 -45
l-12 -35 5 38 c2 24 0 37 -8 37 -7 0 -3 8 8 17 20 15 20 15 -2 10 -13 -3 -26
-1 -29 4 -3 5 -10 9 -17 9 -7 0 -8 -3 -1 -10 7 -7 3 -44 -12 -113 -21 -99 -52
-196 -53 -168 -1 11 -4 11 -16 1 -8 -7 -13 -16 -10 -20 6 -10 -38 -60 -53 -60
-6 0 -9 -6 -6 -14 6 -15 -40 -56 -64 -56 -12 0 -12 3 -2 15 11 13 10 14 -6 8
-17 -6 -18 -5 -4 13 14 17 14 18 -2 6 -9 -7 -15 -21 -13 -30 4 -24 -14 -42
-41 -42 -16 0 -27 -8 -33 -23 -15 -38 -50 -55 -87 -42 -26 8 -29 12 -18 22 7
8 15 9 19 4 3 -6 18 -9 32 -8 30 3 40 25 42 87 1 44 -15 23 -24 -33 -7 -37 -7
-37 -43 -31 -21 4 -38 7 -39 8 -1 1 2 16 5 35 10 48 47 72 119 78 64 6 63 5
92 76 10 24 8 29 -12 37 -12 5 -35 11 -51 15 -28 6 -28 6 -10 26 16 17 16 22
4 29 -10 7 -11 10 -2 10 6 0 12 8 12 18 0 14 -2 15 -10 2 -8 -12 -10 -12 -10
5 0 11 5 27 10 35 8 13 10 13 10 0 0 -10 5 -7 16 8 10 15 25 22 47 22 25 0 36
7 49 30 10 17 13 32 7 35 -15 10 -1 24 34 34 43 14 143 4 195 -19z"/>
<path d="M3567 2912 c-14 -3 -17 -10 -12 -32 4 -19 1 -37 -10 -53 -15 -24 -16
-81 -1 -106 20 -32 69 -44 152 -37 54 5 84 3 89 -4 3 -6 11 -8 16 -5 5 3 6 0
3 -8 -3 -8 0 -18 7 -23 8 -5 10 -3 4 7 -5 8 2 5 15 -6 13 -11 20 -14 16 -7
-14 24 4 32 38 18 30 -13 36 -12 67 7 18 12 30 16 26 10 -5 -8 0 -8 18 0 14 7
25 15 25 19 0 4 12 19 28 33 l27 26 -29 -11 c-26 -10 -28 -9 -23 11 4 15 3 19
-4 12 -12 -12 -49 -6 -49 7 0 17 -32 40 -54 40 -13 0 -29 6 -36 14 -15 20 -43
8 -37 -15 5 -19 -32 -41 -91 -54 -18 -4 -36 -13 -39 -20 -5 -16 -27 -7 -75 32
-19 15 -38 20 -63 18 -19 -2 -35 1 -35 6 0 5 6 9 13 9 17 0 67 65 67 88 0 21
-22 31 -53 24z"/>
<path d="M4305 2656 c-60 -19 -205 -113 -293 -189 -42 -37 -101 -86 -131 -110
-47 -36 -56 -49 -68 -97 -8 -30 -27 -78 -42 -105 -30 -52 -28 -78 5 -97 10 -6
9 -19 -2 -60 -7 -29 -14 -64 -14 -76 0 -31 -35 -77 -46 -60 -4 6 -2 14 4 16 7
2 17 13 23 24 10 18 9 20 -5 15 -14 -5 -15 -3 -6 13 6 10 9 23 8 27 -1 4 4 26
11 49 11 33 11 46 1 64 -12 22 -14 22 -25 7 -7 -9 -10 -27 -8 -40 13 -66 -54
-234 -119 -301 -27 -28 -30 -29 -25 -9 5 23 -14 48 -28 35 -5 -4 -6 0 -3 8 18
47 18 52 -1 25 -33 -50 -99 -263 -113 -365 -7 -52 -12 -156 -11 -230 1 -74 2
-187 2 -250 1 -63 -4 -169 -10 -235 -6 -66 -13 -156 -14 -200 -1 -44 -5 -134
-9 -200 -4 -66 -9 -164 -10 -218 l-3 -97 197 0 198 0 21 69 c12 38 21 74 21
80 0 40 162 399 202 449 23 28 17 1 -11 -52 -17 -31 -26 -56 -20 -56 7 0 0 -9
-15 -21 -14 -11 -26 -26 -26 -32 0 -7 -9 -29 -20 -50 -26 -48 -71 -167 -63
-167 3 0 0 -7 -7 -15 -15 -18 -16 -17 35 -34 50 -17 241 -102 316 -142 l57
-29 241 0 241 0 -6 28 c-4 15 -14 45 -24 68 -19 45 -14 119 15 187 8 20 15 46
15 57 0 12 9 42 20 68 12 30 23 92 30 172 6 69 12 136 14 150 21 142 26 194
31 315 4 77 13 196 21 265 16 148 18 367 4 500 -6 52 -16 160 -24 240 -13 137
-27 189 -67 260 -5 8 -17 31 -28 50 -11 19 -28 44 -38 55 -10 11 -35 43 -55
70 -41 57 -87 100 -115 109 -11 4 -26 17 -33 31 -23 43 -112 58 -195 31z"/>
</g>
</svg>
