<?xml version="1.0" standalone="no"?>
<!DOCTYPE svg PUBLIC "-//W3C//DTD SVG 20010904//EN"
 "http://www.w3.org/TR/2001/REC-SVG-20010904/DTD/svg10.dtd">
<svg version="1.0" xmlns="http://www.w3.org/2000/svg"
 width="400.000000pt" height="600.000000pt" viewBox="0 0 400.000000 600.000000"
 preserveAspectRatio="xMidYMid meet">
<metadata>
Created by potrace 1.15, written by Peter Selinger 2001-2017
</metadata>
<g transform="translate(0.000000,600.000000) scale(0.100000,-0.100000)"
fill="#000000" stroke="none">
<path d="M0 5195 c0 -770 1 -805 18 -814 22 -12 63 -4 78 15 9 11 15 10 32 -7
12 -11 22 -15 22 -9 0 6 -7 13 -15 16 -22 9 -9 23 15 17 11 -3 17 -9 14 -14
-3 -5 -1 -9 5 -9 20 0 20 18 1 35 -25 23 -25 30 0 32 11 1 20 -2 20 -8 0 -5 7
-9 16 -9 14 0 14 3 4 15 -10 12 -9 15 4 15 10 0 14 5 11 10 -3 6 3 10 14 10
12 0 21 4 21 9 0 6 12 6 30 0 31 -11 43 -49 15 -49 -8 0 -15 -5 -15 -10 0 -6
10 -8 24 -4 31 8 69 -26 50 -44 -10 -9 -14 -7 -19 7 -4 13 -12 17 -25 14 -22
-6 -27 -38 -7 -46 9 -4 8 -8 -3 -16 -13 -9 -11 -12 8 -17 18 -5 20 -9 10 -15
-10 -7 -9 -9 4 -9 15 0 16 -4 8 -26 -6 -14 -10 -39 -10 -55 0 -18 -4 -28 -10
-24 -5 3 -10 1 -10 -4 0 -6 -9 -11 -19 -11 -14 0 -18 5 -14 20 4 14 0 20 -11
20 -12 0 -14 5 -6 25 6 17 6 25 -1 25 -6 0 -7 5 -4 10 3 6 2 10 -3 10 -17 0
-22 -13 -10 -29 7 -9 9 -13 4 -9 -5 4 -15 0 -23 -8 -8 -8 -18 -12 -23 -9 -4 3
-10 -9 -12 -26 -3 -19 -1 -28 6 -25 41 17 46 17 46 7 0 -7 -14 -17 -30 -22
-17 -6 -30 -16 -30 -22 0 -6 -3 -7 -6 -4 -4 3 -15 2 -25 -4 -15 -7 -21 -6 -25
6 -10 25 -21 17 -22 -16 0 -17 -5 -36 -10 -42 -13 -18 -13 -60 1 -69 7 -4 -5
-7 -26 -6 -41 1 -59 -9 -38 -21 11 -7 8 -12 -10 -21 -23 -13 -23 -13 -4 -21
17 -6 17 -8 3 -8 -17 -1 -18 -64 -18 -1087 0 -794 3 -1090 11 -1100 8 -10 8
-14 0 -14 -8 0 -11 -240 -11 -875 l0 -875 2000 0 2000 0 0 319 c0 176 -3 327
-6 335 -5 14 -9 14 -23 4 -9 -7 -6 -1 7 13 l22 25 0 2653 0 2652 -42 -3 c-37
-3 -43 -6 -42 -25 0 -19 -5 -23 -30 -23 -24 0 -27 -3 -16 -10 13 -8 13 -10 -1
-10 -23 0 -34 -30 -11 -30 15 -1 15 -2 -2 -15 -18 -13 -34 -13 -88 1 -9 3 -28
-7 -44 -21 -15 -14 -31 -25 -35 -25 -5 0 -9 -7 -9 -15 0 -15 11 -19 40 -16 13
2 13 0 1 -8 -8 -5 -20 -7 -28 -4 -7 3 -13 1 -13 -5 0 -9 -17 -18 -75 -39 -5
-3 -2 2 7 10 10 8 15 17 12 20 -8 7 -69 -52 -69 -66 0 -5 -15 -11 -34 -13 -19
-2 -40 -9 -47 -15 -7 -6 -18 -8 -24 -4 -5 3 -13 -1 -16 -9 -3 -9 -13 -16 -20
-16 -8 0 -17 -7 -21 -16 -4 -10 -17 -15 -42 -13 -36 2 -60 -4 -93 -22 -23 -12
-28 -11 -26 4 2 9 -17 12 -67 13 -96 0 -97 0 -93 29 4 29 -16 35 -20 5 -2 -11
-8 -18 -13 -14 -5 3 -7 9 -4 14 3 5 -6 12 -21 16 -26 7 -26 8 -9 20 18 13 17
14 -7 14 -14 0 -31 7 -38 15 -7 8 -21 15 -31 15 -13 0 -17 8 -17 33 1 17 -2
42 -5 55 -4 14 -1 22 6 22 7 0 -1 11 -17 23 -30 24 -29 47 2 47 20 1 54 24 46
32 -2 3 4 8 16 11 11 3 23 1 26 -4 6 -10 64 20 64 33 0 4 -686 8 -1525 8
l-1525 0 0 -805z m2360 15 c0 -47 0 -109 0 -138 1 -31 -5 -61 -12 -69 -10 -13
-10 -17 0 -20 15 -6 16 -82 1 -138 -6 -22 -13 -52 -16 -67 -3 -16 -10 -28 -15
-28 -6 0 -8 -10 -5 -22 5 -18 0 -26 -18 -35 -19 -8 -25 -8 -26 0 0 8 -2 8 -6
0 -2 -7 -11 -13 -18 -13 -22 0 -23 23 -2 53 10 16 17 31 14 34 -4 3 1 12 9 20
8 9 13 20 11 27 -2 6 3 16 12 22 13 10 10 18 -26 54 l-42 42 6 114 c5 95 9
114 22 114 12 0 13 2 3 8 -9 7 -8 13 8 27 11 10 20 14 21 9 1 -5 4 2 8 16 4
15 3 28 -3 33 -7 5 -6 7 4 6 30 -3 38 2 44 27 13 49 26 10 26 -76z m-409 33
c7 -21 18 -42 24 -48 11 -9 85 -186 85 -203 0 -4 -16 -6 -35 -4 -23 3 -36 11
-40 23 -5 14 -16 19 -43 20 -20 0 -45 2 -55 4 -12 2 -22 -5 -29 -21 -8 -17
-19 -24 -40 -24 -26 0 -28 2 -22 28 4 15 17 56 31 92 64 170 64 170 88 170 18
0 26 -9 36 -37z m277 -385 c19 -30 19 -34 5 -62 -25 -50 -54 -76 -85 -76 -39
0 -97 26 -130 57 -27 26 -37 53 -19 53 14 0 33 -28 27 -39 -7 -11 24 -31 48
-31 24 0 21 46 -4 53 -11 3 -20 10 -20 16 0 7 10 5 25 -5 24 -16 27 -15 45 1
11 10 26 15 34 12 8 -3 19 0 26 7 12 16 -5 26 -48 27 -24 0 -25 1 -7 9 11 5
34 9 52 9 24 1 35 -6 51 -31z m-240 -205 c29 -29 40 -32 151 -35 72 -3 73 -3
103 32 l29 35 -6 -50 c-18 -145 -34 -183 -118 -285 -60 -73 -81 -81 -172 -58
-54 14 -59 33 -8 33 18 0 37 5 42 10 14 14 2 55 -15 55 -24 0 -15 19 11 25 79
16 73 17 71 -16 -1 -17 -8 -34 -15 -38 -10 -6 -9 -10 4 -15 27 -10 38 -7 31 9
-3 8 -1 15 5 15 6 0 7 5 2 13 -4 6 -8 14 -8 17 -1 3 -5 15 -9 28 -7 20 -12 22
-38 17 -44 -10 -122 3 -110 18 12 15 9 72 -5 89 -6 7 -13 39 -16 71 -5 56 -5
57 19 57 14 0 37 -12 52 -27z m1481 -884 c11 -24 32 -59 46 -78 17 -23 25 -47
25 -75 0 -25 12 -66 30 -105 23 -48 32 -83 34 -133 4 -63 2 -70 -22 -88 -26
-21 -40 -20 -26 2 12 19 4 91 -12 109 -8 8 -14 22 -14 30 0 8 -5 20 -12 27 -7
7 -9 12 -6 12 4 0 3 14 -2 30 -7 23 -4 38 8 60 20 35 11 48 -19 27 -32 -23
-48 -11 -55 44 -4 27 -10 49 -15 49 -5 0 -9 6 -9 14 0 8 -6 16 -12 19 -14 4
-15 128 -2 148 7 11 28 -20 63 -92z m-1666 -182 c7 -19 -4 -68 -14 -61 -5 3
-9 -2 -9 -10 0 -9 -11 -23 -25 -32 -23 -15 -27 -15 -50 0 -29 19 -33 31 -7 22
9 -3 4 5 -13 19 -16 14 -33 25 -37 25 -5 0 -8 7 -8 16 0 13 -3 14 -14 5 -9 -7
-22 -8 -37 -2 -21 8 -18 10 26 16 28 3 55 8 60 9 6 2 35 4 66 5 40 1 58 -2 62
-12z m487 6 c-1 -7 -34 -34 -161 -133 -20 -16 -20 -17 10 -95 30 -78 37 -105
25 -92 -4 4 -20 -3 -36 -15 -23 -16 -32 -18 -41 -9 -9 9 -7 11 8 6 18 -6 18
-5 2 5 -9 6 -21 9 -26 6 -4 -3 -17 1 -27 10 -18 14 -17 14 6 4 23 -10 22 -9
-5 15 -16 14 -29 30 -27 35 1 6 -11 13 -28 16 -16 4 -30 11 -30 16 0 13 25 61
82 156 l49 82 100 0 c54 0 99 -3 99 -7z m1208 -840 c2 -13 10 -23 18 -23 8 0
13 -4 10 -9 -9 -14 5 -41 21 -41 8 0 11 -4 8 -10 -6 -9 11 -14 43 -13 7 1 11
-2 8 -5 -3 -3 0 -12 8 -21 12 -13 12 -25 4 -62 -9 -38 -15 -47 -41 -55 -40
-12 -45 -30 -11 -38 14 -4 24 -9 22 -12 -3 -2 -46 -13 -96 -23 -181 -39 -321
-137 -459 -320 -119 -157 -196 -379 -219 -633 -6 -74 -7 -76 -31 -74 -14 2
-29 9 -33 17 -5 7 -12 11 -15 7 -4 -3 -15 1 -25 10 -22 18 -53 25 -43 9 4 -6
0 -8 -9 -4 -9 3 -19 3 -22 -1 -13 -13 -36 -10 -36 5 0 12 3 13 14 4 10 -9 15
-8 19 3 4 9 -2 17 -14 21 -11 4 -22 5 -23 3 -2 -1 -9 -12 -15 -23 -9 -15 -11
-16 -7 -2 4 11 0 17 -10 17 -11 0 -14 -5 -9 -17 4 -10 9 -27 11 -38 4 -17 3
-17 -7 3 -7 12 -16 22 -20 22 -12 0 -1 42 13 52 7 4 9 8 3 8 -5 0 -3 4 5 10 8
5 12 12 8 15 -3 3 -13 -1 -22 -10 -9 -9 -16 -13 -16 -9 0 3 -6 2 -12 -3 -7 -6
-21 -13 -32 -17 -17 -6 -18 -2 -12 71 11 120 25 181 49 205 12 11 16 18 10 14
-14 -8 -19 19 -5 27 15 9 29 -20 28 -58 -1 -46 20 -57 59 -31 28 18 36 70 10
60 -8 -3 -13 -9 -12 -12 1 -4 -2 -8 -8 -9 -5 -1 -9 9 -8 23 1 16 -3 24 -14 24
-11 0 -14 8 -11 30 3 16 1 30 -4 30 -5 0 -6 12 -2 28 4 21 3 24 -5 12 -15 -21
-13 -4 4 53 17 57 31 83 42 79 4 -1 9 15 11 35 2 21 10 45 18 54 8 8 14 21 14
28 0 26 81 180 114 217 20 21 50 58 68 81 47 60 208 185 297 232 123 64 215
91 296 88 64 -2 70 -4 73 -24z m-1411 -23 c14 -11 42 -21 62 -21 42 -2 103
-16 81 -19 -8 -1 -18 -2 -22 -1 -5 0 -8 -11 -8 -26 -1 -42 -102 -142 -151
-150 -14 -2 -17 7 -17 60 0 70 9 93 39 102 27 9 19 16 -30 25 -43 8 -50 1 -52
-43 -1 -18 -3 -16 -10 8 -11 37 12 65 53 65 17 0 27 4 23 10 -10 16 5 12 32
-10z m-154 -53 c-3 -6 -1 -7 5 -3 7 4 12 1 12 -9 0 -9 -4 -13 -10 -10 -5 3
-10 2 -10 -4 0 -5 4 -12 9 -15 12 -8 12 -155 0 -181 -5 -11 -13 -31 -18 -45
-6 -18 -23 -30 -62 -44 -30 -11 -71 -30 -91 -43 -35 -22 -68 -30 -68 -17 0 13
68 65 99 75 20 7 42 18 49 26 8 7 18 11 23 8 5 -4 9 -1 9 4 0 6 5 11 11 11 5
0 7 -5 3 -11 -4 -7 -1 -10 7 -7 8 3 13 12 13 21 -1 10 -3 38 -4 65 l-3 47 -7
-45 c-4 -25 -8 -39 -8 -31 -2 11 -5 11 -19 0 -11 -10 -14 -10 -9 -1 4 6 2 12
-4 12 -6 0 -13 -6 -16 -14 -3 -8 -12 -12 -20 -9 -8 3 -14 -1 -14 -8 0 -9 -3
-10 -8 -4 -8 11 -29 15 -80 17 -18 1 -31 6 -30 12 2 7 0 11 -4 11 -14 0 -35
39 -42 78 -5 29 -3 39 9 43 8 3 15 14 15 24 0 21 46 40 99 40 28 0 33 -3 21
-11 -11 -8 -9 -9 9 -3 38 10 82 40 73 49 -4 4 3 6 15 3 17 -5 24 -1 29 16 7
20 8 19 15 -8 5 -16 5 -34 2 -39z m1187 -527 c24 -24 25 -29 3 -46 -16 -12
-13 -13 23 -8 33 5 42 3 48 -11 3 -9 3 -22 -1 -27 -3 -7 -1 -8 5 -4 7 4 12 1
12 -8 0 -8 9 -20 20 -26 10 -6 17 -16 15 -23 -3 -7 5 -13 21 -13 34 -2 41 -11
27 -33 -10 -16 -9 -18 9 -13 l22 5 -23 -31 c-12 -18 -26 -32 -31 -32 -4 0 -10
-10 -14 -22 -4 -19 -8 -20 -18 -10 -11 11 -10 16 6 27 10 8 15 18 12 24 -4 5
-2 12 4 16 18 11 11 35 -10 35 -11 0 -20 -7 -20 -15 0 -21 -20 -19 -21 3 0 10
-3 12 -6 5 -8 -22 -31 -14 -37 12 -4 14 -12 25 -19 25 -6 0 -13 12 -13 26 -1
14 -12 35 -24 46 l-22 21 7 -21 c5 -17 3 -21 -9 -16 -9 3 -13 10 -10 15 9 16
-28 23 -50 9 -19 -12 -20 -12 -7 3 7 10 19 17 27 17 7 0 16 5 19 10 4 6 3 9
-2 8 -17 -6 -13 13 9 42 12 17 23 30 25 30 2 0 12 -9 23 -20z m239 -274 c-15
-16 -10 -23 15 -23 26 0 96 -65 96 -88 0 -6 9 -21 21 -33 18 -20 18 -23 4 -28
-9 -4 -26 -2 -38 4 -12 6 -29 11 -37 11 -36 2 -80 14 -80 23 0 5 -5 6 -12 2
-8 -5 -9 -2 -5 11 6 14 3 16 -12 12 -14 -3 -23 3 -31 24 -13 31 -3 56 43 106
19 21 21 21 33 5 8 -10 9 -21 3 -26z m311 -67 c-13 -51 -13 -52 -9 -101 2 -24
8 -38 17 -38 7 0 10 -4 7 -10 -3 -5 -2 -10 3 -10 16 0 9 -30 -9 -35 -14 -5
-15 -10 -6 -35 6 -17 15 -30 19 -30 4 0 6 -18 5 -40 l-1 -41 -46 7 c-25 4 -50
13 -55 21 -11 15 -45 8 -45 -10 0 -5 -10 -2 -22 9 -16 13 -19 14 -10 3 11 -14
10 -17 -5 -15 -11 0 -18 -5 -17 -15 2 -25 -24 -17 -53 17 -14 16 -69 73 -121
126 -53 54 -94 100 -91 103 5 4 229 -23 336 -40 31 -6 31 -5 53 62 42 127 76
177 50 72z m58 -383 c6 -14 21 -30 33 -37 19 -10 21 -9 15 7 -5 12 2 9 20 -9
15 -15 32 -27 39 -27 14 0 24 -75 30 -219 3 -73 1 -91 -11 -91 -8 0 -14 7 -14
15 0 8 -3 14 -7 14 -23 -4 -35 3 -29 16 3 8 2 14 -2 14 -29 -5 -52 30 -52 78
0 25 1 26 13 8 9 -11 16 -14 21 -7 10 17 -4 41 -22 35 -13 -4 -14 -3 -3 5 7 5
10 15 7 21 -4 6 -2 11 3 11 6 0 10 15 8 35 -1 19 -6 35 -11 35 -4 0 -6 6 -3
14 3 8 -9 30 -29 51 -33 36 -42 55 -26 55 5 0 14 -11 20 -24z"/>
</g>
</svg>
